<svg width="229" height="457" fill="none" xmlns="http://www.w3.org/2000/svg"><path fill-rule="evenodd" clip-rule="evenodd" d="M60.2081 417.644c-.9788-4.55 3.4983-6.087 6.3208-7.099 2.0217-1.31 9.5126-5.843 15.3087-11.44 4.743-4.58 7.9717-10.449 9.3157-11.009 0 0 1.3835-.801 1.5271-1.396.8419-3.487.1398-6.737 0-8.852-2.6983-.707-4.8604-1.589-6.4775-2.823-.4715.157-1.1785.358-1.3892-.331-1.4614-9.733-2.0922-19.352-3.2812-29.093-4.5008-37.102-5.0085-80.446 2.7345-114.333.0814-1.68-.0653-3.197-.2154-4.64-1.047-.113-1.6801-1.125-2.535-1.729-1.3269-1.053-2.898-1.862-2.8332-3.702-.3152-.238-.2785-.372-.1231-.676-1.0121-4.345 3.5024-8.924 4.7792-12.506-2.3209-22.661.837-44.076-.9247-66.743-2.2252-.93-.7292-6.74-.5772-9.136 1.2328-15.438 9.2715-30.702 23.7474-35.7451.828-.1675 2.072-1.1117 2.757-.4777 1.323-.5233 3.084.5085 4.108-.6794l-.01-.0078c.862-1.1938 1.249-2.7115 1.532-4.1465-.047.4044-.127.8054-.224 1.1974 2.496-7.0215 3.124-8.8989 11.158-9.2295 3.619-.0483 8.39.0601 10.5 3.5059.865 1.6018.601 3.441 1.137 5.1271.985 3.094 5.238 1.5989 7.47 3.2055 17.867 5.7211 32.523 17.3981 37.34 36.1411.985 2.259 2.102 4.507 2.925 6.839.128.346.478 1.517-.364 2.056l-.407.26c5.363 25.024 5.719 46.109-12.298 62.791-1.352 7.169 2.126 16.958.789 23.918.762 1.079-.204 1.948-1.178 2.017-.094.052-.474.218-.577.266 1.55 21.844-4.958 51.284-7.827 62.904-.39 6.976 1.995 12.707 6.902 16.509 5.421 3.334 16.139 18.388 14.152 34.18 2.322.455 4.627.704 6.855 1.575 9.747-1.717 9.65 17.042 10.271 23.638 1.052 11.043 1.706 27.05-8.803 34.12-2.769 2.005-8.383 4.352-11.26 1.143-.942-1.131-1.178-2.223-.808-3.377-4.75-6.7-3.47-15.464-3.906-23.322-1.378-.083-2.819.562-4.151.327-1.368-1.203 3.621-.875 4.139-.946-.053-1.212-.151-2.488-.277-3.71-.782.157-1.785.532-2.537.561-.446.108-.761-.504-.492-.822.588-.559 2.085-.472 2.928-.552-.143-1.022-.317-2.098-.51-3.087-1.031-.037-2.095.619-3.072.485.739-.492 2.126-.343 3.027-.668-.586-3.185-1.779-6.209-2.889-9.189-2.722 1.121-5.07 1.165-7.727.829-1.087.167-1.617-.055-1.793-1.412l.07-.086c-2.107-12.581-8.903-24.576-21.527-38.177-2.493-2.786-5.311-6.066-7.188-9.734-3.773-7.632-4.417-16.054-7.324-23.98-2.714-7.967-6.425-15.588-9.909-23.14-.511 3.871-1.197 7.841-1.91 11.637-3.14 13.449-2.836 27.799-.525 41.323 3.419 18.941 1.771 37.972 2.531 57.048-.01 1.1-.147 2.099.015 3.245.021.088-.02.192-.125.19l-.197.005c-1.644 1.201-3.913 1.418-5.844 2.07-.811.641-.583 1.656-.657 2.447-.212 3.412-.484 6.838-.147 10.354 1.49 2.851 3.341 2.262 3.719 6.279.331 4.587.918 9.465-1.32 13.55l.847.145c1.256 2.632.489 4.341-2.464 5.454-14.5774 5.706-35.0901 10.887-50.3019 6.58-.2765.273-.6786-.011-.993-.441-.3021-.413-.5232-.961-.4741-1.28.2602-1.397-.0975-3.947 1.4671-4.205z" fill="#fff"/><path fill-rule="evenodd" clip-rule="evenodd" d="M59.5132 422.213c13.0993 5.872 36.8855-1.537 49.7568-5.824 3.47-1.25 4.626-1.495 3.654-5.49-1.82 3.506-5.732 4.352-9.481 5.055-12.6987 2.89-25.6449 8.225-39.2254 5.622-1.9933-.313-3.9657-1.391-4.5457-3.379-.3576.843-.1365 1.984-.2796 2.911-.0266.369-.0348.768.1209 1.105zm52.9798-21.842c-.236-2.354-.615-4.841-1.957-6.921.146 3.364-1.878 9.083-6.312 7.178-1.256-.665-1.96-2.003-2.769-3.078-2.6856-3.535-6.1297-6.605-10.0205-8.836-2.1643.371-3.095 4.322-4.49 5.976 1.5551.692 4.3733 2.269 4.6583 3.899-1.9418-.652-3.7291-1.866-5.7657-2.293a39.7228 39.7228 0 01-2.0698 2.612c.9488.418 4.774 2.348 4.7489 3.311-2.0683-.335-4.0728-1.346-6.1523-1.761-.9251.915-1.7668 1.901-2.6875 2.82 1.391.572 2.8599 1.21 3.6194 2.544.0361.06-.0528.127-.1016.069-1.0419-1.254-2.8349-1.484-4.3887-1.766-2.384 2.241-5.0535 4.218-8.0413 5.697-2.9893 1.631-7.5324 2.005-8.7216 5.545-.9515 3.538 2.0156 3.916 4.7531 4.166 2.7695.393 5.5585.453 8.3099.223 8.6006-.357 16.731-2.885 24.8587-5.094 9.9377-1.826 13.1617-3.304 12.5287-14.291zm-2.914-20.695c.023.156.044.312.066.469.028-.166.048-.332.088-.495-.052.008-.103.018-.154.026zm-16.0552 7.904c3.8073 2.811 7.5242 5.943 10.1682 9.863 1.75 3.19 4.079 1.249 4.657-1.307.469-5.705.066-10.632.615-16.371-5.265.717-10.6731.275-15.8157-.993.6189 2.562.9028 3.535.9222 6.163-.0335.866-.0208 1.924-.5467 2.645zm-8.5234-209.993c-.1125 8.397-.1653 16.797.1268 25.191 7.4043-19.105 5.1382-39.836 6.1899-59.917-2.1882-.728-4.5388-1.046-6.7936-1.357.9055 12.465.6718 23.599.4769 36.083zm41.8466 42.423c18.18-8.678 20.695-30.927 35.09-43.184.465-.442.85-.896 1.074-1.431-1.032-10.41-.957-19.538-2.177-29.937-1.363-2.469-1.901-5.337-2.916-7.964-.532-1.6-1.177-3.184-1.33-4.863-.128-.553.737-.793.898-.271 1.921 3.727 2.877 7.872 4.311 11.802.202.081.47.017.55-.194.012.051.026.103.038.154 6.172-2.408 12.536-4.651 19.26-4.634-.004-.021-.01-.043-.014-.064.415.013 1.284-.021 1.024-.62-5.91-21.517-16.522-36.266-39.033-43.2717 2.878 16.6957-39.011 17.6617-38.432 2.1218-15.7796 6.7679-22.5775 25.7769-20.7887 41.7829 1.4995-.404 5.4041 1.186 6.9273 2.109.3102-6.499-.4606-14.342-.007-20.153 2.4009 29.631 6.8813 65.085-7.9261 91.971-.961 1.802-2.5287 3.527-2.4898 5.643-.1154.117-.1265.321.014.471 0 .009-.0001.019.0012.029.0071.001.0154.001.0236.001.4299.511 1.334.613 1.9559.725 1.4688.296 3.0144.521 4.3595 1.201 14.3311 7.511 25.5721-2.172 39.5871-1.424zm-4.53 13.653c-.692 1.32-1.855 2.383-3.234 3.046.17.334.228.708.246 1.06 2.483.507 1.785 1.683 3.463 2.244 1.097.303 2.153.432 3.102 1.095 3.228 3.003 4.029 2.782 7.494.141-.047-.239 4.668-4.837 6.129-7.407 1.217-2.144 2.491-4.304 4.357-5.962 9.135-9.337 18.866-18.149 27.709-27.745 17.721-17.628 14.34-37.618 10.269-59.637-6.569.783-13.175 2.356-19.091 5.245 2.086 9.719 2.22 18.528 3.119 28.39.271 1.219-.035 3.568-1.766 3.026-15.906 12.607-17.754 38.515-38.628 46.007-8.507 3.452-4.917 6.254-7.728 12.773 1.546-.284 2.926-1.578 3.591-2.817.33-.615 1.29-.073.968.541zm48.079-7.649c.36-2.471.079-4.93.063-7.404.193-4.506.043-8.899-.131-13.42-4.988 5.159-10.174 10.142-15.268 15.205 5.425.684 11.682 1.246 15.336 5.619zm.093 3.634a1.203 1.203 0 01-.245-.111c.019 1.938-.011 3.877-.082 5.813.136-1.9.244-3.801.327-5.702zm6.102 137.794c1.463-.112 7.721-.328 8.472.653-.846.357-2.008.16-2.918.2-1.767.072-3.529.228-5.278.475.131.68.249 1.359.347 2.041 1.763.168 5.198.244 6.318 1.476-1.998.318-4.077.032-6.082.429.098.933.169 1.868.221 2.802.799.085 5.495.861 5.491 1.599-1.759.233-3.621-.074-5.413.1.388 5.6-.928 22.512 6.74 23.547 6.703-.353 9.644-11.198 10.555-16.401 2.019-12.123 1.673-25.049-2.33-36.734-1.43-3.249-5.322-3.813-8.614-3.981-.125.55-.248 1.09-.387 1.634 1.427 3.23 1.881 6.867 1.921 10.362-.302 5.024-6.512 8.76-11.021 5.441.842 2.055 1.493 4.194 1.978 6.357zm8.87 36.142c13.277-2.849 15.455-18.199 14.543-29.486-.744-7.857.15-24.422-7.115-29.038 9.389 8.557 8.574 66.81-12.234 56.643.519 1.641 3.187 2.115 4.806 1.881zm-2.602-54.767c-.023-.203-.05-.404-.077-.607-1.474 3.995-3.997 7.792-7.754 10.105 1.438 1.791 4.24 2.325 6.13.858 3.297-2.467 1.923-6.932 1.701-10.356zM137.602 93.5937c.027.0458.055.0917.082.1361.184.0125.369.0292.557.05-.213-.0639-.426-.1236-.639-.1861zm-25.232 1.4661c.007-.0208.014-.0416.02-.0611-.017.0097-.034.0209-.052.032.014.0083.023.018.032.0291zM58.2239 419.781c.0362-.993.0502-2.277 1.2159-2.63-.5286-4.282 3.0324-6.72 6.7713-7.906 3.1882-1.948 6.8035-3.308 9.733-5.655-1.3604-.255-2.7208-.563-3.9296-1.154-.9125-.446-.473-1.93.5159-1.792 1.7514.23 3.3245 1.119 4.9702 1.737.9348-.767 1.8404-1.567 2.6957-2.414-1.0654-.206-2.4202-.13-3.0408-1.186-.1933-.33-.1069-.673.1266-.928 1.0794-1.09 3.2189-.001 4.5599.317.6439-.741 1.2658-1.497 1.8765-2.262-1.0128-.093-3.6473.091-3.1313-1.577.989-1.305 3.1158-.522 4.5459-.254 1.8139-2.227 2.3981-5.643 5.233-6.867.1015-.541.808-.499 1.2796-.339.6941-3.308.6412-4.99.4381-8.381-2.1044-.582-4.1923-1.345-5.9422-2.598-.8042.236-1.7791-.036-1.9462-.979-.5005-3.322-.7799-7.157-1.1309-10.551h-.1278c-.6661-6.19-1.2031-12.398-1.9573-18.573-4.3161-35.689-5.2565-79.251 2.7335-114.509.0626-1.336-.0321-2.673-.1669-4-.9529-.254-1.5204-1.183-2.3091-1.72-1.4661-1.193-2.9574-1.861-3.0924-3.942-.2961-.282-.3309-.709-.1683-1.078-.3797-2.137.1796-4.259 1.3188-6.106 1.249-2.104 2.4287-4.227 3.4705-6.435-2.2784-22.254.8123-43.822-.8776-66.188-2.1672-1.145-.8068-7.511-.6052-9.633 1.2659-13.935 7.7828-29.321 21.6383-35.117.973-.8192 2.33-1.097 3.518-1.5483.803-.3944 2.109-.736 2.658.1819.583-.2708 2.46-.4777 3.102-.947.12-.0875.197-.1833.215-.2902.047.0013.103-.0084.162-.0209.593-.8359 1.158-6.6585 1.888-6.2433.797 1.9997.245 4.259-.518 6.278-.525 1.7858-1.246 6.3798-4.039 5.2046-.481-.2388-.184-.8595.248-.9095 1.324-.3777 1.619-2.3204 2.131-3.4591-.607.5027-3.37 1.2567-3.671 1.4164-5.993 13.7304 30.239 13.0104 33.088 3.5434 2.031-3.2698.278-5.0417-3.343-5.5666 2.661 2.9522-.708 3.6076-1.989.7123-1.226-2.0732-1.783-4.5922-1.365-6.9779-.215-.8373-.398-1.9565.857-1.7316.043-.1111.112-.0236.085.0556.458.7276.139 1.7732.302 2.6134.137 1.3747.529 2.7217 1.192 3.9381 1.231.2347 2.457.4861 3.676.761.732-1.4844 5.478 1.4761 6.752 1.8247 16.928 4.992 29.8 18.287 34.293 35.056 1.003 2.233 2.085 4.477 2.906 6.779.367.997.367 2.235-.641 2.88 4.914 22.506 6.113 45.955-12.453 62.835-.421 1.827-.14 3.766-.128 5.627-.156 4.238 3.472 18.763-.741 20.642 1.231 18.816-3.386 44.418-7.861 62.57-.331 6.239 1.554 11.915 6.627 15.851 9.645 7.199 13.708 19.215 14.837 30.666.159 1.173.002 2.367-.262 3.52 2.091.389 4.048.641 6.077 1.407 11.194-2.142 10.395 21.866 11.252 28.99.671 10.532.252 23.156-9.442 30.052-3.259 2.316-9.012 4.54-12.188 1.033-.899-1.074-1.388-2.329-1.035-3.701-4.553-6.656-3.477-15.163-3.818-22.736-1.192.042-2.492.572-3.666.28-.904-.238-1.019-1.397-.254-1.858 1.104-.625 2.605-.387 3.84-.429-.037-.725-.091-1.449-.161-2.174-1.172.286-2.853.973-3.202-.663-.141-1.49 1.744-1.604 2.918-1.667-.082-.563-.174-1.122-.278-1.681-.899.091-1.847.663-2.731.389-.5-.197-.674-.703-.308-1.112.68-.665 1.843-.532 2.743-.739-.547-2.673-1.535-5.23-2.486-7.786-1.722.597-3.587.991-5.425.842-.953-.2-1.993-.257-2.956-.128-1.071-.284-1.318-1.426-1.459-2.36a.9258.9258 0 01.066-.094c-2.475-14.386-11.353-26.815-21.307-37.522-2.741-3.064-5.43-6.249-7.293-9.887-3.783-7.605-4.462-16.16-7.357-24.06-2.438-7.174-5.697-14.053-8.892-20.942-1.282 9.073-3.674 17.998-3.948 27.199-.418 11.641 2.152 23.113 3.248 34.661 1.584 12.212.74 24.485.84 36.726h-.068c.026 2.952.106 6.032.291 8.975-.007 1.076-.147 2.09.007 3.166.084.596-.344.969-.795.982-1.655 1.084-3.735 1.469-5.637 1.933-.528.403-.3 1.394-.393 2.001-.204 3.409-.474 5.982-.142 9.419 1.862 2.747 3.202 2.308 3.72 6.484.285 4.36.912 9.074-.996 13.031.854.194 1.178 2.796 1.05 3.485-.217 1.941-1.932 2.556-3.59 3.226-12.117 4.532-37.8634 11.994-50.3143 6.863-.8916.504-1.8861-.484-2.1741-1.279-.381-.968-.0305-1.905.0403-2.867z" fill="#2B283A"/><path fill-rule="evenodd" clip-rule="evenodd" d="M91.2782 60.4825c1.2729-6.9292 4.4116-13.5223 9.2318-18.6809.556-.6126 1.056-1.5788 1.905-1.7332.852-1.7332 2.476-2.9583 3.774-4.358 2.834-2.8204 5.545-5.9722 9.2-7.7533 16.952-6.9601 33.265 12.8857 36.727 27.8109 3.438 12.003-.317 28.5608-15.218 29.0465-2.108 2.7834-5.017 4.71-8.005 6.4307-4.08 2.6081-8.532 3.6668-13.252 2.2154-4.702 1.2265-9.576-2.7092-12.401-6.1608-2.233-2.6735-3.7639-5.9364-5.8066-8.7038-2.4116-.0602-4.4956-2.0987-4.8185-4.4881-2.2524-4.1322-2.15-9.0838-1.3367-13.6254z" fill="#fff"/><path fill-rule="evenodd" clip-rule="evenodd" d="M128.203 25.5989c-3.084-.7195-6.319-.5703-9.374.2204-6.056 1.5673-11.039 5.6431-15.17 10.1874-4.03 4.4325-7.3533 9.5138-9.7805 14.9877l-.123.2784c-1.7168 3.902-3.2087 7.9578-3.2727 12.2543-.0551 3.6978.3191 7.5502 1.5158 11.0673 1.066 3.1332 3.0269 6.2904 6.4006 7.0415 1.9448 4.9363 5.7508 9.2111 10.5448 11.4984 2.974 1.4188 6.239 2.0522 9.527 1.7372 3.354-.321 6.487-1.9299 9.108-3.9816.072-.0563-.02-.1653-.095-.1228-3.156 1.8157-6.888 2.4647-10.503 2.3453-5.941-.1961-11.387-3.397-14.517-8.4285-.778-1.2522-1.472-2.5731-2.026-3.9472.033-.113.052-.2276.052-.3392 0-.4734-.226-.8351-.5613-1.0688a18.5238 18.5238 0 01-.4084-1.4735c-.2608-1.1251-.4063-2.2664-.4941-3.4169-.0712-.9347-.0317-1.9263-.1257-2.8849.0342-.768.0818-1.5354.1515-2.3011.2243-2.4673.6781-4.9285 1.552-7.2539.885-2.3555 2.284-4.4326 4.048-6.2204 3.784-3.8346 8.495-6.6344 12.174-10.5736l.193-.2084.013-.0041c.456.4672.913.9345 1.37 1.4008l2.09 2.1284c4.266 4.3486 8.498 8.7396 12.209 13.5786 2.137 2.7866 4.057 5.7076 5.712 8.8051.783 1.467 1.493 2.9706 2.135 4.5045l.253.6106c.301.7308.626 1.5487.806 2.3739-.537.5317-.929 1.3131-1.364 1.9166-.492.6845-1.06 1.336-1.645 1.9441-.592.6156-1.24 1.2056-1.929 1.7112l-.083.0596c-.79.56-1.698.9467-1.816 2.0126-.052.4628.363.8351.747.9792 1.05.394 2.139-.7378 2.839-1.3888.437-.406.838-.8436 1.21-1.3055.363.0517.727.0777 1.088.0349.56-.0663 1.114-.164 1.658-.307 4.519-1.1845 7.864-4.9296 9.669-9.1007 2.423-5.5998 2.367-12.0549 1.359-17.9766-1.84-10.8216-7.797-20.9278-16.791-27.326-2.519-1.7918-5.312-3.3412-8.346-4.0485zm-4.868 1.4477c5.81-.3056 11.108 2.6855 15.358 6.4089 7.739 6.7793 12.505 16.7053 13.464 26.8983.51 5.4156.128 11.2531-2.7 16.0379-1.098 1.8564-2.511 3.4741-4.18 4.838-1.572 1.2854-3.364 2.0263-5.28 2.5304.087-.12.173-.2408.257-.3635.445-.6514.8-1.3437 1.096-2.0692a.0687.0687 0 00.105-.0084c1.209-1.6565.83-3.6331.254-5.4547-.604-1.9107-1.37-3.7698-2.245-5.5732-3.186-6.5721-7.926-12.2976-12.846-17.6404-2.513-2.7285-5.109-5.378-7.695-8.0366-1.292-1.3275-2.58-2.6589-3.852-4.0056a202.7082 202.7082 0 01-1.886-2.0237c-.616-.6717-1.171-1.3831-1.939-1.8862-.612-.4009-1.222.3654-.936.9353.44.8765 1.196 1.5714 1.865 2.2842l.069.0738c.653.7032 1.311 1.4007 1.974 2.0945.762.7979 1.53 1.5904 2.3 2.3808-.657-.0759-1.321-.1197-1.974-.2187-.887-.1344-1.762-.3324-2.633-.5478-.917-.2268-1.823-.5163-2.697-.8762-.821-.338-1.597-.8796-2.5-.9326-.765-.045-1.004.9002-.58 1.3976.584.6854 1.634.9552 2.487 1.2097l.121.0363c.944.2878 1.911.5037 2.887.648 1.285.1899 2.771.2769 4.146.0825-2.746 1.6072-5.273 3.599-7.792 5.5416l-.445.3422c-2.462 1.8907-4.864 3.929-6.619 6.5158-1.6386 2.415-2.6279 5.2266-3.1831 8.0754-.2739 1.4054-.4545 2.8257-.5758 4.252-.452 1.2645-.3794 2.7679-.2656 4.1587l.0406.48-.003.1408c-.017.8699-.3671 2.8066.4575 3.4634.014.07.0271.1404.0418.2104a10.409 10.409 0 01-.3046-.1954c-.0413-.0276-.0814-.058-.1218-.0879l-.114-.0934-.0111-.0095c-.2559-.2242-.5001-.4584-.7276-.7115-.4205-.4678-.8203-1.0623-1.1989-1.7472-.832-1.5053-1.3635-3.1416-1.7746-4.8336-.7514-3.0931-1.0614-6.4155-.7187-9.5877.0479-.4428.1461-.998.2984-1.5676a53.9007 53.9007 0 011.2435-4.0109c.9319-2.6411 2.0742-5.2032 3.4061-7.6672 2.7049-5.0047 6.1849-9.6316 10.3549-13.5144 4.223-3.9322 9.7-7.0645 15.572-7.3734zm8.194 15.99c-.21-.1277-.425.1204-.321.3207.503.9691 1.349 1.7873 2.051 2.6177.728.8598 1.45 1.7244 2.171 2.5902 1.467 1.7629 2.899 3.5581 4.275 5.3933l.363.4855c1.209 1.6206 2.404 3.2669 3.461 4.9888.553.9008 1.041 1.8324 1.483 2.7919.422.9133.616 2.0157 1.122 2.8736.032.0542.131.0497.143-.0188.165-.9237-.243-2.0362-.535-2.9012-.346-1.0287-.84-2.0086-1.368-2.9549-1.102-1.9741-2.423-3.8245-3.749-5.6525-1.347-1.8561-2.746-3.6744-4.213-5.4377a70.4894 70.4894 0 00-2.12-2.4356l-.273-.2977c-.76-.8231-1.526-1.7759-2.49-2.3633zm3.522-2.8699c-.344-.2549-.638.2659-.418.5419 1.313 1.6489 2.807 3.1304 4.243 4.6682 1.38 1.4768 2.699 3.0089 3.944 4.6013 2.537 3.247 4.569 6.81 6.289 10.5442.033.0704.135.0179.119-.0502-.911-4.0391-3.041-7.7075-5.467-11.0221l-.092-.1257c-2.454-3.3331-5.274-6.6838-8.618-9.1576z" fill="#2B283A"/><path fill-rule="evenodd" clip-rule="evenodd" d="M116.139 78.082c-.779-1.2778-2.437 1.8524-2.613 2.3906-.157.4768-.26.9653-.312 1.4593-.603.135-1.23.1353-1.848.017-.919-.176-1.48-.669-2.279-1.0924-.551-.2925-1.246.0505-1.533.5357-.337.5711-.122 1.1638.321 1.5896.842.8073 2.497.9927 3.596.7784.629-.1228 1.206-.3584 1.715-.7008.003.0639.006.1278.011.1916l.009.1107c.085.8953.331 2.0212 1.028 2.6039 1.143.9557 2.553-.8823 1.442-1.837l-.034-.0286c-.69-.5567-.841-2.0501-.803-2.8727.024-.5369.122-1.0807.292-1.5921l.035-.1018c.051-.1444.608-1.5147.809-1.3402l.01.0099c.083.099.217-.0163.154-.1211zm-6.213-7.2106c-1.051.6374-2.651 2.1237-1.521 3.7038 1.33 1.3933 3.245-.2042 4.189-.9267.875-.5599 1.858.8802 1.046 1.534-6.819 5.0401-9.587-4.1444-4.246-5.0605.589-.101.807.5522.532.7494zm11.216-5.8916c-1.026-.1817-2.078.0731-2.928.6727l-.064.0462c-.818.5975-1.734 1.6467-1.264 2.6766.188.4136.753.4784 1.111.2909.596-.3121.704-1.0802 1.236-1.5052.437-.3484 1.024-.5598 1.586-.5088 1.32.1197 2.132 1.4196 2.542 2.5398.053.1433.264.199.346.0451.967-1.8041-.745-3.9348-2.565-4.2573zm-16.443-.6808c-1.966-.1618-4.268 1.8734-3.75 3.9455.248.9943 1.725.9658 1.988 0 .145-.5314.13-1.0016.513-1.4429.317-.3644.766-.576 1.249-.5435.533.0358 1.024.3014 1.397.6749.337.3371.539.8305.888 1.1289.086.0733.201.0781.286 0 .601-.5531.24-1.7045-.141-2.2819-.545-.8263-1.433-1.3989-2.43-1.481zm20.188-2.9941c-1.262-1.1148-3.554-2.1914-5.255-1.6428-.978.3154-1.404 1.8886-.312 2.3872 1.264.5774 2.722.3425 4.008.941.541.2514 1.049.5657 1.425 1.0266.297.3632.598.8412 1.027 1.0506.113.0551.265.0565.356-.0457.939-1.0612-.428-2.9919-1.249-3.7169zm-18.02-1.698c-.779-.2185-1.644-.214-2.436-.0768s-1.596.4647-2.242.9426l-.076.0559c-.705.5309-1.547 1.3033-1.502 2.2437.038.7852.865 1.3164 1.579.9048.583-.3356.857-1.008 1.35-1.4557.407-.3695.885-.6609 1.395-.865.566-.2268 1.134-.333 1.741-.3431.469-.0078.939.1455 1.399.1945-.038.0775.325.0414.533-.0273.154-.0656.155-.2601.102-.3864-.265-.6253-1.23-1.0156-1.843-1.1872z" fill="#2B283A"/><path fill-rule="evenodd" clip-rule="evenodd" d="M106.98 86.4162c1.295-1.1522 2.747-3.4684 4.608-1.6357.461.5178.647 1.6787 1.351 1.9065.935.3027 1.861-.6846 2.179-1.4428 1.304-4.2127-4.084-5.3682-7.154-4.6876-1.499.6147-2.603 3.0892-2.67 4.3807-.043.8679.692 2.144 1.686 1.4789zm-9.7736-6.4932a.7584.7584 0 01.0516-.1525c.573-.2162 1.0263.0044 1.3064.4162-.0091.1024-.0397.2061-.0591.3076.2162.4546.4112 1.0172.7041 1.41a.4954.4954 0 00.1755-.0183c4.8561.5063 2.4851-4.5663 7.4111-5.8262 3.808-.6271 10.69.0913 12.486 4.0476 1.416 6.3194 8.619 1.9161 10.984-1.3704 2.524-2.991 4.156-6.6459 5.729-10.1925.332-.7505 1.37-.2138 1.257.5063 1.454 2.9121 1.406 6.4101 1.766 9.6004.612 6.3648 1.209 15.2907-4.715 19.177-7.718 8.7088-26.991 11.7828-35.8937 3.7808-3.0816-6.6146-2.7017-14.6835-1.2029-21.686z" fill="#2B283A"/></svg>