<svg width="233" height="311" fill="none" xmlns="http://www.w3.org/2000/svg"><path fill-rule="evenodd" clip-rule="evenodd" d="M180.559 253.541c-2.726-.495-3.707 2.656-3.824 4.648-1.099-.487-2.243-1.042-3.237-1.68-1.633-1.04-3.398-2.834-5.328-2.787l-.088-.487c-.098-.855-1.848-.285-2.32.015-.756-.139-1.587-.896-2.094-1.587 2.042-.751 2.937-.781 2.614-3.387 0-.403-.101-.779.011-1.138-2.438-10.799-2.915-21.603-3.221-32.61l1.252-.251c3.965 11.028 7.732 22.6 11.113 34.39.084.53.388.537.684.25 1.025.054 2.017.01 3.062-.14l-.014-.048c.314.002.626-.014.914-.033.246 1.581.531 3.211.476 4.845zm-1.644-6.017c.069-.034.856-.379.945-.419l.02.194c-.339.131-.68.258-1.023.373l-.032-.107.09-.041zm-33.632 23.618c-1.329.318-2.737.721-4.043 1.099l.513-1.231c-2.947-7.807-5.198-16.051-6.837-24.11-1.16-5.247-2.365-10.672-3.974-15.871-2.032-8.165-6.417-16.566-15.682-17.266l-.156-.266-.182-.169c-.453-5.726-1.065-11.432-1.657-16.912 4.959 1.355 9.229.914 13.968.877 1.536-.211 3.58.232 4.805-.464l.81-.818c5.381 21.161 6.781 42.968 8.703 64.397.065.487.437.651.828.45.452.492 1.393.303 2.037.374-.541 3.212.095 7.04 1.664 9.715l-.797.195zm-12.63-1.806c-3.315-2.776-7.243-4.152-11.345-3.996-1.44-2.124-3.474-4.669-5.76-5.628-1.071-3.562-.939-7.468-.713-10.823.53-3.427-.656-3.827-3.464-3.577 1.207-1.45 1.099-1.8.854-3.704.802.124 3.228 1.701 3.56.586.403-2.172.677-4.059.837-5.77.085-1.461-.954-2.998-.826-4.485-.382-3.824.009-8.104-1.761-11.627 7.174.954 8.921 8.741 10.778 14.478 3.819 11.816 6.488 23.881 9.331 35.793l-1.491-1.247zm-22.096-27.05c-.17.379-.195.742-.254 1.112-3.374-.616-2.774 4.315-3.089 7.013-.635-.21-1.081-.275-1.745-.145-.097-.889.485-1.284-1.555-1.382-9.505.176-13.1195 10.066-16.3895 17.632-1.5181 3.639-3.6738 4.205-6.8777 4.142-2.1491.041-4.3468.62-6.5426.551 7.9833-15.652 10.8879-38.133 7.6461-57.633h.002c-.1971-1.235-.4313-2.52-.6734-3.763 6.8434.071 14.8045.235 21.3941-.048.868.793 1.938 1.147 3.03 1.155.005.866.099 1.817.181 2.68-6.1585-.152-12.9922-.058-19.2308.032 6.2383.09 13.1042.2 19.2398.024-.01 1.654.157 3.157 1.635 3.957.564 4.184-.165 8.555.345 13.421.41 3.31.073 9.647 3.11 10.699l-.226.553zm-43.3625 25.439l-.2376.415c-.5028-.171-.8114-.133-1.3012.245-3.5638 1.917-8.6858.137-12.5823.011.7409-2.421.7695-6.281-2.6058-6.329 1.1193-10.611.3653-21.136.538-31.737 6.1463-1.165 5.9396-1.794-.0301-2.885-.0373-5.93-.0822-11.929-.0785-17.914-.0007-2.881-.0274-5.69-.2921-8.475.556-1.144.4322-2.316.7191-3.524 1.2114-.674 3.3101.111 4.0637-1.052 3.261-.048 6.5824-.078 9.8761-.252.2988.009.4097-.268.5394-.469.5733-.15 1.5404.193 2.0177-.05l.6441-.827c2.6827 5.448 4.7639 11.867 5.9932 18.366-3.876.042-8.3133.03-12.3123.011 3.8939.286 8.0969.459 12.4035.519 3.3412 16.527.9482 39.715-7.3549 53.947zm-5.3622 7.838c-8.0745 10.116-21.2606 13.488-32.089 5.356C.8502 259.061 2.1465 184.977 40.0942 174.728c-1.0299 3.874-4.6037 19.95 1.8564 20.408l-.02-.052.3292-.18c1.3563.466 3.2648-.182 3.7091 1.692.0173.003.7295.065.7712.069-.4616 2.328-.3275 4.742-.4656 7.107-.5453-.207-1.2244-.33-1.8156-.281-2.2275-.104-2.1715-2.525-2.0846-4.209.0826-.824-.168-1.767-.1265-2.54.022-.537-.014-.956-.2188-1.401-.6853 2.179-1.3331 5.036-.9261 7.255.5985 2.071 3.2505 3.06 5.1701 2.046-.0837 7.456-.1072 14.855-.1489 22.246-1.2609-.658-2.4113-.241-3.7154.111-1.6457.344-3.5982-.144-5.2484.252-.1902-.81-.9586-1.802-1.7677-1.148-1.0295.01-1.5953.959-2.1065 3.035-.3185 1.646-.1324 3.842 1.4396 4.632.8879.477 1.7766.138 2.2141-.836.2483.099.644.401.9262.304 2.6257-.634 5.457-1.275 8.2346-1.872.1447 10.441-.3207 20.806.5465 31.275-3.9632.333-11.5139-.722-13.2401 2.745-1.5864.681-2.7258 2.245-2.7214 3.82-.0521 2.553 2.7974 3.411 5.024 3.439 9.0107.68 17.9363 1.89 27.0157 1.872l-.893 1.046zm16.3311-79.603c5.7313.779 11.4869.773 17.2302 1.027-1.8741 12.658.746 5.304 6.5724 12.418-6.6574-.008-14.6964-.087-20.9564.068-.973-4.77-2.2862-9.324-3.9186-13.673l1.0724.16zm44.3696-64.231c2.527 3.51 5.848 6.575 9.573 8.671-3.218.236-6.494.452-9.667.894-.354-3.039-.713-6.079-1.072-9.118l1.166-.447zm109.452 132.824c-.3-2.989-3.699-4.091-6.186-3.266-1.396-3.69-6.168-3.242-9.239-4.868-6.165-2.969-12.474-8.776-19.61-6.491-.639-1.748-1.356-3.425-2.127-4.891.302.153.689.137.961-.133l.002.002c.266-.302.523-.64.558-1.013.926-1.034 1.314-2.668 1.552-3.886-1.13-3.845-2.503-7.529-3.726-11.334-4.745-14.508-8.083-27.987-11.663-41.861-3.981-10.318-5.05-37.39-19.471-37.442-.046-.721-.071-1.552-.302-2.208-.412.562-.584 1.392-.64 2.106-6.172-.098-11.507 1.043-15.579 2.8-7.796-.344-14.629.119-23.598 1.172 1.086-1.864.36-3.964.258-6.02 13.004.612 26.221-.581 39.164-1.294 2.088-.182 4.305-.067 6.321-.589 2.187-.509 4.263-3.233 2.033-5.306-1.509-.932-3.385-.427-5.039-.51-8.382 0-16.96.163-25.029.457 9.936-5.027 14.948-15.525 20.89-24.479 3.017-4.892 5.271-9.008 7.094-12.959.312-.657.399-1.369.212-1.731-.07-.361-1.197-.402-1.501-.491 8.262-12.843 20.952-7.1883 27.737-14.6299-1.286.0579-2.57.1178-3.855.1792l-.296-1.2262c2.425-1.0862 4.722-2.7728 7.232-5.3117a.0592.0592 0 00-.006-.0167c-4.161 1.2943-8.039 2.2366-11.856 2.8807l-.46-1.1705c3.43-2.2211 6.48-5.2418 8.823-8.737-4.371 1.921-8.482 4.6498-13.019 6.3984l-.682-1.0632c2.586-2.4594 8.382-6.1462 6.733-9.5888-6.443 3.084-12.323 7.076-18.529 10.5606-.005-2.8273 1.995-7.2737.781-9.6309-1.282-1.5727-1.887-.2347-2.534 1.0236 0 0-2.695 4.5057-3.355 5.6082-2.474 4.38-5.95 8.7091-5.871 13.8873-2.151-1.0274-3.842 2.7029-5.24 4.7399-3.928 6.64-17.223 17.063-20.158 18.483-11.952-10.771-10.171-29.0123-22.876-39.1858-4.075-4.1345-7.086-4.6135-11.8901-6.133-1.1419-.2728-2.4334-1.2353-3.4553-.3118-1.5161-1.2504-2.9918-5.2879-3.6175-7.0128-.3869-1.6687-1.0323-5.7759-1.9358-6.546-.9035-.7701-15.618-1.4119-16.9087-1.0268-1.2908.385-.7745 3.4654-.7745 3.4654l-1.3589 5.5853-.1169-.0326c-.0212.0081-.2028.1476-.2256.1633-.9675-.0071-1.8969-.4618-2.8257-.4613-.9791.0207-1.7716.6849-2.5224 1.2536-1.3414 1.0085-2.7283 2.0513-4.3589 2.6807-18.9105 6.0076-21.409 15.0501-27.0668 32.4235-4.656.1311-8.576-.4473-12.6284-.672-1.4263.1803-.9627 2.9356-.9192 4.5103-.1346 3.874 2.7772 3.474 5.6652 3.44 1.9101.023 3.8324.212 5.7219-.011-2.0351 9.343-6.1287 23.95-1.649 32.667 3.6272 6.83 6.7056 8.127 9.6409 8.326.752 6.538.0032 12.394.1394 18.716-43.2772 11.598-45.2687 78.92-25.9242 111.7 15.5327 26.784 44.7453 25.317 59.2247-1.341 3.5016 1.899 10.444 1.768 15.0673 1.352 3.6383-.213 4.8321-1.747 6.1318-5.107 1.4521-3.266 2.8326-6.49 4.3107-9.755 1.4109-3.455 4.23-7.424 9.317-7.269-.024 2.035-.404 4.329.981 5.945-5.16 1.744-2.059 9.872-.559 13.668-7.086 9.613-4.699 26.461 5.213 33.434 16.372 10.928 32.174-9.74 27.392-25.575.784.369 2.239.879 2.865.074.255-.187-.098-1.02-.16-1.291 10.979-.641 21.751-1.925 32.638-2.941-.37 10.057 9.66 19.969 19.723 19.745 13.133.606 21.002-16.604 17.029-27.748 5.023-.139 10.121-.558 15.357-1.264 2.863-.284 4.688-.959 4.576-3.616z" fill="#fff"/><path fill-rule="evenodd" clip-rule="evenodd" d="M70.84 56.4668c-.3112.1014-.2764-.5622.1586-.4953.3607.0559.4945.5381.5602.8441l.0103.0492c.603 2.8089-.0918 5.7761-1.5087 8.2414-.3556.5766-.7243 1.3679-1.429 1.5223.3343 2.3757.7925 4.7321 1.3604 7.063 2.0252.7059 3.9316 1.7521 5.9529 2.4761 3.8899 1.3756 8.0527 1.7434 12.1459 2.0355 2.8159.1526 5.7125.0292 8.3873-.9306 1.1313-.3071 2.0903-1.3122 3.2772-1.3091-.7964-2.1627-1.678-4.2934-2.6564-6.3854-3.0425-.0009-5.3409-2.9368-6.2446-5.5461-.3291-1.0396-.4246-2.1293-.6338-3.1946l-.0775-.3979c-.0681-.3544-.1301-.7111-.1574-1.0704-.009-.1335.1898-1.3054.1433-1.4722-.005.0486-.0687.01-.0981.0075-.08-.0985-.0103-.2963.1484-.2887.2569-.0076.3847.5481.4428.6996 1.2342 2.519 1.7044 5.6151 3.9074 7.5063 1.1-.6902 2.4544.2136 3.5726.4907l.3235.1019c5.2267 1.6377 7.6457 2.0346 11.8437 6.1944 7.172 5.5638 9.285 12.665 12.108 20.8453l.166.4444c2.714 7.2018 4.905 11.6698 10.305 17.5688 1.96-.909 14.136-10.593 18.316-16.2827l.124-.1712c1.204-1.6308 3.944-7.3385 6.188-6.7962.201-5.018 3.557-9.1717 5.924-13.3984l3.36-5.6166c.324-.5418.634-1.2886 1.093-1.729.781-.7482 2.079-.0602 2.546.6983 1.285 2.1539-.333 6.2706-.571 8.7869 5.761-3.3181 11.368-6.9477 17.322-9.9202.501-.24 1.126-.0565 1.285.5198 1.006 4.1373-4.481 7.6002-7.129 10.0754 4.333-1.7318 8.398-4.1971 12.592-6.2611l.28-.137c.569-.2939 1.34.3311.937.9318-2.373 3.5462-5.442 6.6203-9.021 8.9383 3.994-.6738 7.923-1.6621 11.801-2.8699.632-.1964 1.082.6366.634 1.0832l-.211.2124c-2.12 2.1167-4.46 4.0035-7.221 5.24a1302.1 1302.1 0 013.87-.1798c.64-.0281.853.7523.489 1.1746-1.434 1.6594-3.364 2.7364-5.424 3.444-8.618 2.305-15.854 2.1075-21.669 10.2008 1.455.2605 1.243 1.8746.784 2.8876l-.029.061c-2.076 4.499-4.533 8.814-7.135 13.031-5.572 8.233-10.149 18.127-18.969 23.407 5.695-.192 11.393-.303 17.092-.35 1.579-.013 3.158-.021 4.737-.023h1.184c1.566 0 3.632-.327 4.982.64 2.594 2.075.571 5.901-2.302 6.448-1.81.483-3.766.41-5.623.551.354.68.441 1.518.487 2.247 6.524.404 10.332 5.495 12.111 11.315 3.567 11.145 6.299 22.539 9.257 33.855l.335 1.312c2.854 11.155 5.855 22.278 9.436 33.227 1.218 3.792 2.61 7.532 3.731 11.353.1.34.026.65-.145.898-.211 1.492-1.169 3.996-2.782 4.392.662 1.293 1.256 2.694 1.762 4.041 7.275-1.925 13.384 3.76 19.499 6.687 3.08 1.603 7.569 1.154 9.301 4.692 2.792-.694 6.194.852 6.477 3.958.247 3.197-2.489 4.122-5.172 4.313-4.825.653-9.679 1.08-14.546 1.239 2.749 9.22-1.808 22.641-11.204 26.432-12.359 5.187-26.717-5.431-27.033-18.34-10.381.978-20.762 2.197-31.165 2.829.43 1.474-1.534 2.085-2.662 1.653 2.75 12.423-5.369 28.195-18.886 28.144-17.417-.116-24.4566-24.22-15.334-37.118l-.087-.223c-1.451-3.731-4.181-11.408.43-13.618-.973-1.48-.729-3.34-.697-5.012-4.272.192-6.4797 3.247-8.067 6.854-1.463 3.229-2.8572 6.489-4.2996 9.729-1.3586 3.511-2.6993 5.282-6.6962 5.516l-.4096.03c-4.4603.322-10.3892.587-14.4146-1.195-9.5524 17.382-29.5955 27.692-46.9433 15.232-35.6116-24.45-34.2996-116.077 12.7218-126.93.0191-1.746.0442-3.492.0749-5.239-.1007-1.112-.0788-2.223.0221-3.351l.0217-.461c.129-2.848.1591-5.725-.1939-8.556-5.706-.46-9.1621-7.723-9.7377-8.822-4.3987-8.399-.33-23.94 1.5005-32.06-1.7757.141-3.3988-.075-5.1347-.055l-.602.011c-3.2262.05-5.393-.085-5.4747-4.087.004-1.6257-.7225-4.6389 1.4263-5.1436.9706-.1936 2.1168.1489 3.0888.2442 3.0683.247 6.1407.4347 9.2184.4157 2.6702-7.6126 4.7604-15.7587 9.8458-22.2034 4.3198-5.4528 11.2291-7.6002 17.4406-10.1769 1.6858-.6494 3.1094-1.7741 4.5616-2.8612l.1002-.0774c.7211-.5512 1.5053-1.0164 2.442-1.0415.9106-.0242 1.7576.3865 2.6488.4465.1569-.1165.3615-.1895.539-.1401.4744-1.3059.8255-2.6631.9985-4.0389l-.0147-.0634c-.0267-.1048-.0369-.0783-.0292.0812.0414 0 .0478.0579.0092.0706zm51.045 210.3322c-1.962 0-3.845.415-5.597 1.172-.407 2.247 1.452 5.399 2.076 7.663.025.935.196 1.889.416 2.813.156 2.699 1.304 5.174 1.836 7.728.099.485.846.28.747-.205-.467-2.29-1.091-4.544-1.628-6.818.253.151.68-.053.587-.427-.199-.804-.199-1.618-.167-2.434 13.284 1.669 12.507 23.64-1.045 23.943-8.795.219-13.696-11.777-8.724-18.96-.817-1.745-1.701-3.46-2.537-5.21-7.121 11.852.337 32.049 14.036 31.679 22.091-.621 22.1-40.318 0-40.944zm79.757 2.582c2.622 4.864 2.343 11.399-.983 15.882-3.762 5.096-11.971 4.5-15.657-.391-1.457-1.743-2.579-3.879-2.645-6.184-.005-.508.326-1.408-.12-1.807l-2.848.303c-1.424.151-2.849.301-4.273.446 4.127 10.974 14.27 20.911 26.655 15.415 7.674-4.212 10.518-14.272 9.398-22.482-.063-.392.08-.715.313-.931-3.28.075-6.574.091-9.84-.251zM67.1062 186.102c-21.8893-34.444-50.7236-12.143-58.1046 19.47-5.543 21.767-3.5757 48.341 7.9977 67.608 13.5913 22.946 36.529 22.919 50.1066 0 10.276-17.104 12.9788-39.975 9.5759-60.122a.7442.7442 0 01-.1935.506c3.9996 24.185-.5009 54.111-19.7779 68.806-14.2305 10.449-30.8699 1.905-38.8585-12.409-15.4615-25.952-14.2707-73.541 11.0919-93.049 7.2399-5.134 15.7428-6.109 23.5844-2.438.0801-.485.3821.049.4996.241 13.4917 7.127 20.1602 22.433 23.2437 37.67.1861.103.3103.26.3696.434-.4221-2.462-.9357-4.883-1.5378-7.247-1.8857-7.311-4.577-13.861-7.9971-19.47zm49.5918 101.375c-1.167-.742-.612 1.482-.206 1.895.291.409.869.063.669-.389-.249-.362.193-1.464-.463-1.506zM39.116 175.193c-32.746 9.152-34.89 69.303-19.0486 93.45 7.2925 13.006 22.108 21.195 35.1532 11.632 2.1375-1.503 4.1575-3.371 6.0459-5.582-8.387-.069-16.7577-1.187-25.1269-1.815l-.1899-.017c-1.2673-.11-2.5674-.17-3.7351-.714-3.54-1.725-2.5753-6.154.6413-7.699 1.762-3.455 9.5424-2.685 13.0223-2.868-.7811-9.931-.3749-19.921-.4879-29.875a329.0373 329.0373 0 00-7.4463 1.701c-.2942.072-.5924.03-.8441-.095-.6043.949-1.7899 1.056-2.7403.576-1.9219-.966-2.1413-3.48-1.7786-5.338l.038-.16c.3168-1.313.9503-3.269 2.4957-3.371.9747-.604 2.0349.11 2.3905 1.058 1.6318-.271 3.1111.156 4.7022-.162 1.0544-.212 2.118-.749 3.2023-.379.0376-6.817.0613-13.636.1342-20.453-2.0451.681-4.5409-.728-5.1345-2.763-.4015-1.354-.0465-2.907.1419-4.266l.0356-.254c.1211-.853.2723-1.744.5634-2.57-4.6055-.632-3.6633-10.233-3.3135-13.625.4288-2.225.6962-4.158 1.2792-6.411zm76.048 38.709c-2.045-.019-3.507 2.184-2.326 3.938 2.376 2.669 5.811.263 9.493 7.458 6.109 14.399 8.928 29.975 12.73 45.086 1.912 1.977 3.073 4.492 4.477 6.841.519.883.677 2.13 1.618 2.689.182.084.328.099.471.077-1.953-1.077-1.544-6.394-1.141-8.328l-.018.001c-.177.012-.825.153-.528-.152l.316-.101.316-.101.022-.078c-5.493-12.687-6.687-26.853-10.624-40.066l-.351-1.172c-1.36-4.517-2.93-9.24-6.372-12.593-.131-.007-.265-.055-.388-.158l-.124-.108c-2.032-1.748-4.528-3.16-7.308-2.905-.111.008-.129-.161-.025-.188.065-.017.13-.03.195-.045-.145-.029-.289-.061-.433-.095zm-9.77 35.857c-.586.232-1.182.069-1.844.085-.693.017-1.367.131-2.033.32-10.941 3.149-9.3278 19.507-17.2947 21.404-1.9912.385-3.9957.089-5.9928-.178-1.2742.045-2.4449.006-3.6645-.255a68.3133 68.3133 0 01-1.798 3.352c1.4518-.226 2.9306-.167 4.3977-.193 3.4501.054 6.9-.086 10.3258-.514 1.2197-.137 2.3453-.475 3.0671-1.527 1.6289-2.739 2.7438-5.784 4.2089-8.615l.1927-.433c2.0969-4.692 4.871-10.322 10.7708-10.336.034-.339.299-.611.601-.694.034-.488.068-.976.104-1.465-.341-.325-.592-.745-1.041-.951zm-72.8223 15.968c-.6386 1.068-.5725 2.942.5718 3.682.7758.439 1.8819.391 2.7416.452l1.4806.109c.4935.036.9869.072 1.4802.111l.7397.059c7.0577.56 14.1082 1.171 21.1566 1.808l.032-.011c.098-.036.252-.085.252-.085l.1095-.05c.1566-.075-.0331-.007-.0516.002l-.0011.001c.786-.504 1.6328.073 1.8186.836.7048-.939 1.3876-1.929 2.0484-2.971-.9288.271-1.9154.311-2.8757.25-.6604.747-1.8463.473-2.7287.456-6.2352-.496-12.4537-1.211-18.6693-1.905a3816.574 3816.574 0 01-4.737-.553l-.3564-.032c-1.3957-.132-3.0743-.398-3.0112-2.159zM168.304 253.57c-.654.708-1.908.901-2.743 1.314-.964.479-1.884 1.059-2.711 1.748-3.741 3.448-7.549 8.932-13.406 6.509-1.231-.474-2.378-1.228-3.147-2.31-.343.168-.739-.153-1.086-.197.3 1.608.426 3.136.882 4.707.197.688.421 1.369.696 2.03.283.677.793 1.361.774 2.119 4.438-.942 8.924-1.549 13.422-2.097 1.69-.061 4.542-.964 5.94-.106 1.657 1.026.914 2.923 1.797 3.628 1.348.655 3.091.161 4.55.122 6.358-.538 12.775-.894 19.122-1.424 3.813-.695 1.318-1.859 2.96-2.79-.006-5.831-7.052-5.216-11.185-5.731-1.247.495-2.507.952-3.782 1.368-.629.205-1.064-.632-.628-1.073l.886-.895c-.605-.136-1.205-.288-1.799-.464-.837.378-1.716.659-2.535 1.076l-.153.08c-.558.3-1.217-.31-.883-.878.259-.439.465-.89.624-1.359-.782-.352-1.541-.754-2.264-1.213l-.144-.092-2.347 1.304c-.459.255-1.15-.176-.948-.725.241-.757.952-1.078 1.492-1.586-.06-.13-.096-.302-.067-.434-1.056-.92-1.978-2.093-3.317-2.631zm31.275 17.571l-.075.012c.005.009.009.016.014.024l.032-.004-.031.005c.021.031.049.054.086.063a.5459.5459 0 01-.019-.066l-.007-.034zm-85.648-74.334l.189 1.754c.501 4.676.978 9.33 1.351 14.012.05.046.09.1.124.157l1.111.2c1.938.352 3.544.717 5.302 2.041 5.856 3.116 7.819 9.978 9.614 15.864 3.937 12.908 5.292 26.539 10.614 39.021.156.361.147.683.039.943.921-.264 1.848-.509 2.78-.736-1.252-2.399-1.793-5.99-1.444-8.672l-.136-.004c-.435-.011-.96-.012-1.308-.28-.685.192-1.266-.458-1.331-1.075l-.003-.029c-1.896-21.146-3.273-42.508-8.409-63.18-.668.675-1.875.52-2.773.559l-.047.002c-.81.039-1.62.069-2.431.095l-.351.005c-4.282.061-8.693.369-12.891-.677zM82.4332 213.77c2.9578 18.505.3415 40.718-7.3573 56.32 1.8617-.038 3.673-.535 5.5309-.529 3.3061.054 4.9194-.618 6.2487-3.75 3.1933-7.242 6.3831-16.543 15.3895-17.918l.421-.04c1.258-.118 3.373-.246 3.374 1.238.163-.019.349-.002.516.043.027-.346.054-.693.082-1.038l.024-.683c.079-2.157.311-5.141 3.012-5.117.036-.238.115-.474.211-.708-2.72-1.335-2.625-8.192-2.93-10.954-.249-3.93-.23-7.874-.14-11.81.011-.39.086-.91-.067-1.228-1.402-.914-1.71-2.106-1.756-3.738-7.5103.189-15.0435-.012-22.5588-.088zm32.6498 7.02c.656 1.473.701 3.173.89 4.76.158 1.888.269 3.776.38 5.666l.024.433c.038.66.093 1.301.335 1.933l.055.147c.285.758.502 1.462.423 2.299-.183 1.956-.493 3.935-.851 5.866-.502 1.636-2.371.593-3.434.212l.012.108c.071.707.068 1.414-.328 1.959 2.935-.094 3.144 2.006 2.811 4.35l-.019.309c-.205 3.302-.273 6.763.631 9.957 1.525.654 2.633 1.884 3.694 3.103.625.723 1.406 1.49 1.897 2.344 4.141-.074 8.089 1.39 11.391 4.153l-.39-1.647c-2.554-10.801-5.056-21.629-8.476-32.199-1.731-5-3.081-12.299-9.045-13.753zm-63.6119-8.462c.009 4.702.0426 9.402.0723 14.103 1.4185.199 2.788.607 4.1084 1.195.8377.373.453 1.502-.231 1.76-1.2469.47-2.5506.741-3.8529 1.011-.1343 10.219.5467 20.488-.4711 30.67 3.0604.456 3.2831 3.888 2.7041 6.299 3.3888.298 6.8049 1.149 10.2032.553 1.0012-.054 1.6388-1.177 2.5558-.967 8.0055-13.972 10.6175-35.74 7.3779-52.996-7.5035-.121-15.0349-.581-22.4667-1.628zm-2.0525 18.52c-.7099.149-1.4185.299-2.1284.449-.1051 10.099.3225 20.242-.4789 30.316.3-.015.2376.182-.0181.199-.0155.172-.0322.344-.049.516-.0478.511-.7499.51-.7977 0a24.9521 24.9521 0 01-.0284-.31c-1.3527.295-2.726.504-4.0892.731-2.0083.494-6.8347.173-7.1958 2.773l1.5617.135c5.2694.458 9.8989.889 15.1238 1.438.2607-1.596 1.5028-3.955-.4557-4.968-.2826.267-.8273.148-.8739-.36-1.08-10.264-.4203-20.616-.5704-30.919zM204.69 251.649c-6.241-2.483-9.487.411-14.487 3.589-2.583 1.453-6.106 2.085-8.706.396-1.194.069-1.752-1.236-1.654-2.277-.001-.072-.002-.143-.002-.213-1.454.871-.554 3.288-.864 4.715 2.968.927 6.056 1.154 9.137 1.375 3.994.089 8.809 2.041 9.278 6.479l.013.135.306-.009c0-.449.285-.911.85-.956l.037-.002c8.25-.518 16.586-.49 24.795-1.324.986-.279 1.338-.925 1.074-1.886-.636-2.311-3.894-2.424-5.814-2.962-2.312-.648-4.388-1.783-6.423-3.001-.868.242-1.745.446-2.63.616-.429.083-.991-.294-.794-.789l.144-.361c.144-.36.322-.77.547-1.118-.663-.394-1.331-.777-2.011-1.136-1.152.406-2.244.937-3.281 1.594-.626.397-1.266-.478-.798-.99l.016-.018c.541-.552.961-1.173 1.267-1.857zm-41.449.759c-5.563 2.705-11.465 4.721-17.155 7.166l.115.043c.199.075.426.176.5.355 2.14 1.686 5.15 2.374 7.69 1.176 3.665-1.955 5.483-6.167 9.231-8.07a3.4357 3.4357 0 01-.381-.67zm-52.888-7.463c-.183-.031-.724-.267-.868-.204-.369.916-.38 2-.482 2.977-.343 3.815-1.048 7.587-1.439 11.389 1.933-.528 3.92-.842 5.909-.886-.162-1.179-.292-2.351-.361-3.537-.128-2.308-.034-4.635.313-6.922l.024-.124c.377-1.989.078-2.078-1.807-2.779-.406.137-.857.16-1.289.086zm42.468-89.978c-3.221-3.061-8.024-2.689-12.157-2.705-8.813-.002-17.607.795-26.299 2.21-.246.43-.938.527-1.272.208-2.393.398-4.778.834-7.158 1.3.658 4.141 1.184 8.304 1.771 12.455l.038.256c.258 1.801.386 3.818-.846 5.304-.035 4.6-.211 9.215-.229 13.821.679-.642 1.773-.569 2.645-.728 1.787-.408 3.488-.703 5.3-.803 1.824-.277 3.648-.555 5.473-.831.281-.043.507.077.648.258 2.335-.273 4.66-.74 7.004-.892l-.139-.414c-.693-2.083-1.326-4.343-.33-6.413.237-.485 1.009-.457 1.254 0 .859 1.602.896 3.428 1.226 5.18.189 1.004.581 2.072.763 3.131.969 1.593 1.452 3.461 2.083 5.207 6.887 21.621 7.716 44.513 10.31 66.895 4.023-1.661 8.097-3.216 12.134-4.84 2.901-1.41 9.483-2.516 9.159-6.589.015-.335-.005-.666-.043-.996.079-.13.189-.239.319-.322-1.332-5.213-1.896-10.595-2.237-15.951-.885-14.722-1.323-29.472-1.774-44.214l-.021-.624c-.341-10.225-.451-21.851-7.622-29.903zm10.821 59.071c.528 9.823.294 19.784 2.655 29.402l.072.292c.228.922.835 2.222.449 3.187-.014 1.179.404 3.018-.615 3.851-.436.316-.996.512-1.522.712.255.295.612.499.964.619l.059-.028c.977-.456 2.694-.765 2.939.593 1.849.145 3.636 1.905 5.127 2.846.763.481 1.553.904 2.365 1.275.257-1.951 1.405-4.423 3.704-4.361 0-1.18-.202-2.345-.379-3.509-1.069.17-2.137.241-3.217.195-.718.515-1.428-.052-1.521-.824-3.313-11.461-7.015-22.97-11.08-34.25zm30.05 29.847c-4.413 1.377-9.256 1.406-13.493 3.304 1.272 1.814 1.761 4.006 2.072 6.16.29.226.485.583.501.969.008.136-.005.272-.045.401 4.713.981 8.171-2.994 11.962-5.002-.517-1.879-.765-3.89-.997-5.832zm-11.408 9.639l.002.027c-.007.218.165.148-.002-.027zm-3.053-5.928c-.072.032-.143.067-.215.099.074-.011.149-.022.223-.034-.003-.022-.006-.043-.008-.065zm-10.962-95.163c-5.144-3.46-15.405-1.843-21.501-1.436 12.044.908 14.037 17.36 14.993 26.829.77 10.172 1.055 20.38 1.618 30.566 4.796 12.74 8.688 25.808 12.79 38.783 3.331-1.857 6.973-3.038 10.745-3.65l.544-.078c3.159-.46 6.371-1.035 8.973-2.996-9.317-22.628-13.217-47.056-20.301-70.407-2.08-5.843-2.767-13.509-7.861-17.611zm27.525 90.52c-.177.104-.359.202-.545.294a.8518.8518 0 01.307-.011c.081-.091.167-.196.238-.283zM111.2 194.08c-.85-1.416-2.73-2.7-4.397-2.085 2.511 1.526 1.966 5.935 2.15 8.513l-.004.146c-.061 2.433.146 7.568-1.199 9.303.094 1.119.096 2.278.21 3.404.035.412-.046 1.182.198 1.547 2.693 1.501 1.387 5.1 1.548 7.598-.122 4.783.214 9.557.353 14.335-.009 1.235-.129 2.552.284 3.734.529-1.124 2.037-1.048 2.365.09.264-.345.795-.372 1.249-.31.16-1.516.407-3.031.46-4.548.026-.754-.421-1.376-.585-2.097-.33-2.737.045-5.534.079-8.286l.008-.083c.106-1.138.188-3.955.835-4.646-4.183-.747-5.506-5.985-1.424-7.919-.056-.256-.002-.525.174-.719-.347-4.143-.797-8.282-1.191-12.423-.169-1.865-.163-3.88-1.113-5.554zm-75.8461 35.306c.316-.426-.3659-.885-.6435-.434-.2866.483-.4532 1.072-.3364 1.628.0647.307.5714.393.7077.092.1172-.248.1587-.514.2169-.779.1563-.12.1581-.347.0553-.507zm2.3811-2.502c.0129.074.0245.148.0348.223.1162-.043.2362-.077.3602-.108a14.5843 14.5843 0 01-.395-.115zm10.1425-30.498c-.3175.197-.6931.322-1.0868.38.7183 9.788.3113 19.645.484 29.457.708.162 1.4465.027 2.1646.082.1757-8.564-.1529-17.121.3989-25.679-.4819-1.224-.7897-2.711-.4324-4.016-.5163-.05-1.0275-.123-1.5283-.224zm54.3005 13.574c-6.368.248-12.7794.139-19.1562.06-.4027-.011-.817-.014-1.2365-.016.1639.856.3175 1.718.4595 2.585 7.5481-.087 15.1128-.264 22.6562-.102l-.032-.351c-.031-.354-.06-.716-.07-1.076-.937-.071-1.853-.47-2.621-1.1zm-33.9208-14.313c-.4635.595-1.4789.213-2.1516.269-.1717.274-.466.475-.8816.497-3.1998.169-6.406.203-9.6109.249-.935 1.078-2.5966.456-3.8.893-.1475.746-.1551 1.519-.3252 2.268-.0723.306-.1794.594-.2995.878.2608 2.833.2801 5.704.2801 8.544 1.5839-.459 3.2971-.382 4.9332-.486 3.5482-.09 7.0972-.055 10.6461-.062 1.5679-.028 3.3406.066 4.87.046.3916-.14.9457.083 1.0261.533.2934 1.147-1.0118 1.232-1.7915 1.175-.941-.021-1.8819-.041-2.8216-.061-3.8491-.095-7.6989-.165-11.5444-.337-1.7638-.145-3.6164-.098-5.3179-.624l.0008 2.139c.0004.213.001.409.0018.573 7.3747-.029 14.7535.083 22.1298.017-1.131-5.715-2.982-11.544-5.3437-16.511zm95.2438 15.322c-.03.376.105.691.282 1.015-.095-.338-.19-.676-.282-1.015zm-85.5079-14.83c1.4145 3.879 2.5723 7.973 3.4642 12.226 6.3492-.138 12.6872-.07 19.0357-.059-2.339-2.734-4.8214-1.983-5.9864-3.721-.8439-1.347-.1392-5.761.0814-7.442-4.943-.208-9.9086-.233-14.8293-.791-.5576-.073-1.1642-.123-1.7656-.213zM43.04 194.662a2.3594 2.3594 0 01-.3807.259c.3395.888-.0084 1.781.2915 2.685.0127 1.067-.0418 2.141.0118 3.155-.0043.966.599 1.572 1.4688 1.634.315.018.7319-.055 1.1617.072.0855-1.89.0113-3.811.3227-5.679a3.8166 3.8166 0 01-.5825-.099c-.0287-.89-.9025-1.747-1.7993-1.293-.1792-.237-.3424-.487-.494-.734zm57.803-.672c-.27.032-.532.092-.784.194.059 2.413 3.561.719 4.041 3.68.079.697-.007 1.399-.031 2.098-.011.357-.293.919.098 1.128.202.291.754.234.705-.185a4.4247 4.4247 0 01-.02-.234c.172-.304.277-.623.333-.952.208-.107.146-.382.054-.575-.054-.419.122-1.158-.34-1.381-.047-2.784-1.086-3.227-3.685-3.453-.177-.018-.289.068-.339.189-.069-.149-.067-.328-.032-.509zm-2.3038-36.64c-1.8601.59-3.9374.712-5.869 1.08-12.4746 1.737-24.4603 6.855-37.1811 6.718-.435-.021-.8428-.085-1.2249-.189.0013.198.0284.401.071.597.2388.203.3872.522.4337.846 9.5483 4.815 16.756 14.599 21.2766 24.9 5.6012-.759 11.1974-1.619 16.8106-2.316l1.0187-.131 2.0378-.26c.9926-.125 2.0983-.438 3.0849-.229.4499-4.478.4511-8.846.7899-13.352-.9913-.789-.7577-2.474-.7976-3.639-.2262-4.672-.246-9.353-.4506-14.025zm6.4368 17.915c-.338.089-.687.121-1.013.074-.872.423-2.162.204-3.128.105.113 1.04.21 2.082.251 3.126.163 4.074.098 8.233-.27 12.304 1.322.093 2.645.254 3.965.361.013-5.313.262-10.649.195-15.97zm-50.3906 3.311c1.052 4.361 5.8192 11.033 10.6112 11.432-2.9171-4.695-6.2704-8.395-9.9761-11a30.1676 30.1676 0 00-.6351-.432zm42.7999-32.925c-.1523.004-.3046.005-.4569.003.9169 1.325.7537 3.39-.355 4.558 3.8696 2.385 3.7476 7.72 3.8776 11.723.154 3.874.361 7.739.524 11.608 0-.07.232.028.315.043.523.067 1.054.09 1.582.068.799-.317 1.852-.323 2.402-1.09.653-.871.504-2.172.391-3.179-.272-2.439-.64-4.869-.949-7.303-.854-5.199-.746-15.314-7.3307-16.431zm-1.442 5.12c-3.1074 1.941-7.1955 1.185-10.7054 1.4-2.5647.037-5.1307.048-7.6966.039-8.6423-.048-17.2794-.391-25.9143-.745l.0191.356c.1589 2.855.4527 5.713 1.2885 8.456.4748 1.879 1.184 2.576 3.1712 2.409 10.6194-.156 20.6947-3.924 31.045-5.817 3.7-.613 7.461-1.136 11.1752-1.571l-.0408-.23c-.2976-1.643-.7783-3.499-2.3419-4.297zm2.259-82.8961c.1471.275.2319.5226.1665.7789 12.4382 26.4961 9.1532 56.6332 15.7202 84.5782.129.075.202.195.27.321 2.123-.424 4.262-.791 6.408-1.109-.246-.63.133-1.2.565-1.61.007-.063.093-.26.099-.26-.81-9.911-1.988-19.822-3.002-29.722-.633-6.9-1.788-13.864-1.475-20.8.012-.0806.118-.0561.141 0 1.674 5.994 2.643 15.091 4.316 27.189 12.082 14.099 19.2 16.566 30.818.226l.597-.873c5.43-7.958 10.728-16.069 14.849-24.785-5.155-.164-7.938-5.5548-10.141-9.509-.373-.2004-.621-.5032-.825-.91-1.745 2.1655-3.127 4.8367-4.895 7.0359-4.387 5.7381-14.466 12.8531-14.687 13.0811l-.042.038c-.663.603-2.658 2.882-3.275 2.821-2.688 2.479-8.665-9.069-9.384-11.245-1.752-4.2379-3.166-5.5407-4.686-9.8634l-.262-.7788c-2.095-6.246-4.2-12.8258-9.442-17.1916l-.206-.2173c-3.355-3.5338-6.618-6.2907-11.6277-7.195zm64.1027 78.2361c-1.49.091-2.981.179-4.47.268l-1.378.081c-10.874.648-21.77 1.449-32.664.977.102 1.524.638 3.104.047 4.586 7.517-.875 15.083-1.414 22.632-1.052 4.487-2.109 9.931-2.771 14.976-2.798.085-.701.377-1.493.857-2.062zm-76.4643-11.977c-7.3165-3.251-14.4721.059-17.0469 7.922.1805.148.3047.408.3358.67.6775.9 1.9198.872 2.9376 1 2.0471.269 4.0324.927 5.8419 1.921.999.543 1.8577 1.329 2.8892 1.803l.5549.519c.9262.862 1.876 1.693 3.1035 2.148 1.2714.066-.3708-2.399-.6381-2.879l-.0994-.159c-.5355-.846-1.224-1.809-.4911-2.77 1.3354.638 2.4114 1.557 3.4855 2.582l.1942.188c1.0452 1.017 2.2471 2.294 3.7482 2.46.253.029.4372-.268.3736-.487-.6739-2.223-2.6436-3.777-4.4769-5.112.0157-.633.4582-1.118 1.0371-1.256 2.5732 1.475 4.3696 3.811 6.8855 5.324.2714.16.5562-.051.5828-.332-.0156-1.968-2.0306-3.476-3.4194-4.641a21.6975 21.6975 0 00-.8855-.645c.0684-.394.4306-.739.8832-.803.8253.233 5.7731 4.057 5.7869 2.29l-.0093-.048c-.1319-.622-.8491-1.971-1.5418-1.804-2.5645-3.153-6.2468-6.43-10.0315-7.891zM66.6038 61.8668c-2.5854 1.4775-5.0656 3.0771-7.6541 4.5398-3.2991 1.8816-6.8435 3.3422-10.0141 5.4481-9.6544 7.0817-12.4527 22.008-15.9638 32.8943l-.497 2.113c-2.0124 8.572-5.034 22.227-1.3883 29.213l.0257.055c.4553.962 2.6203 4.859 3.7354 5.552 3.2682 2.029 10.1029 2.718 16.0428 2.321 5.6552-.261 11.2226-1.338 16.7421-2.47.1263-1.892 1.0562-3.473 2.0349-5.015l.1014-.159.1134-.167c1.3844-2.024 2.9458-3.664 5.2328-4.558-7.6405-2.276-20.2195.654-28.7369-5.306-.6802-.476-.0866-1.484.6514-1.108.4441.226.895.433 1.3516.625-.4024-1.443.6459-2.303 1.2721-3.556l.0248-.05c5.3785-10.802 9.6103-22.9433 13.3622-33.9486-1.0919 7.6991-2.8533 15.3246-5.3516 22.6896 2.2894 1.749 4.2002 3.954 6.2641 5.954 2.2107 2.335 4.8929 4.319 6.5801 7.092.3679.645-.3562 1.297-.9848.979-1.4818-.75-2.7119-1.938-3.849-3.12l-.4621-.501c-2.822-3.067-5.6052-6.224-7.7587-9.799-1.4365 4.142-3.2092 7.576-5.1049 11.481l-.2426.502c-.4195.863-.8106 1.827-1.501 2.465.4568.911 1.6258 1.123 2.5273 1.389 7.3244 2.046 15.1013.336 22.4555 2.199l.4851.125c.4844.125.9743.277 1.2629.717 6.4143.234 12.6608 2.848 17.6603 6.879l.1289.102c2.1065 1.679 4.2648 3.894 4.643 6.671.071.524-.1239 1.264-.7525 1.383 1.2168.15 2.3158.773 3.2178 1.636-8.6034-29.708-33.8071-53.3623-35.6542-85.2672zm27.2385 84.4542c.1193.179.2276.367.3066.563-.0387-.027-.076-.056-.1145-.083.0107-.097-.0618-.205-.1314-.284h.0007c-.0333-.04-.0645-.081-.0968-.121a.4205.4205 0 00.0354-.075zm28.0917-14.675c.333 2.824.666 5.647.996 8.471 2.353-.309 4.723-.495 7.091-.669l-.131-.081c-1.198-.745-2.302-1.617-3.338-2.57a37.4442 37.4442 0 01-3.223-3.359c-.49-.578-.954-1.177-1.395-1.792zm-56.0623-30.253c.3648 3.235 2.3908 5.978 4.2732 8.524.493.667-.6277 1.307-1.1145.648l-.1959-.265c-1.9783-2.69-3.871-5.515-4.2536-8.907-.0925-.821 1.1992-.812 1.2908 0zM186.976 69.2419c-5.835 3.6455-11.941 6.8416-17.909 10.264-.731.4122-1.471-.2655-1.334-1.0189.305-1.6717.607-3.3434.904-5.0157l.229-1.2962c.087-.4678.444-2.1558.103-2.7895-1.48 2.4924-3.009 4.9572-4.546 7.4162l-1.677 2.6812c-1.796 2.8723-3.805 5.7872-4.519 9.1321.435.4115.66 1.0089.714 1.5954.501.2.844.7563.707 1.3437 2.149 2.5579 3.617 6.2331 7.055 7.3084 3.9-5.5869 10.309-8.8556 17.011-9.6686l1.189-.2071c2.906-.511 5.934-1.1352 8.249-2.9337-2.298.1103-4.595.2157-6.894.3145-.769.0334-.932-1.1731-.182-1.3336 3.339-.715 6.731-2.2358 9.401-4.4845-4.455 1.5633-9.129 2.4911-13.84 2.8558-.969.0111-1.138-1.3825-.224-1.6545 4.152-1.7018 7.874-4.4089 10.729-7.8452l.091-.1099-5.983 3.1381c-2.495 1.3091-5.164 2.9264-8.077 2.9226-.847-.0013-1.035-1.0551-.407-1.4926l.82-.6063c2.762-2.0489 7.995-6.041 8.39-8.5157z" fill="#2B283A"/><path fill-rule="evenodd" clip-rule="evenodd" d="M70.6253 10.9663c7.0067-.3848 13.2145-2.3652 18.1465 2.0671 0 0 7.9788-5.994 9.3101-3.7111.8921 1.5297-.345 3.5832-.0133 5.4708 2.1624 3.7092 2.0404 9.9874 2.1624 11.4587.309 3.7083 2.25 17.663 2.25 20.9768 0 1.6914-1.386 6.1214-2.25 8.5867-1.9212 5.4872-5.5893 8.2838-11.6049 8.2838-6.0156 0-15.8342-5.0579-18.9832-9.5485-.276-.3936-2.0606.7546-3.9273-1.2371-2.0222-2.1576-3.1441-6.273-3.1441-8.7262 0-3.113-1.9999-5.2718-1.7673-9.2565.5195-8.8991 2.3236-23.9528 9.8211-24.3645z" fill="#fff"/><path fill-rule="evenodd" clip-rule="evenodd" d="M69.8427.62c.0912-.0056.1835-.0011.2758.008a1.988 1.988 0 01.3035.0346c.5148.0994.9741.3735 1.3299.7594.01.01.0178.0213.0267.0313.1668.1264.3213.2697.4603.4217.0245-.0235.0478-.0469.0734-.0704a3.0276 3.0276 0 01.2302-.1845c.335-.289.728-.499 1.1508-.6186l.0578-.0157c.0111-.0034.0223-.0056.0334-.0079.3002-.1005.616-.152.934-.151.3803-.0123.7616.0505 1.1175.198.4214.1757.7883.453 1.0963.7865.2024.1655.3792.3477.566.548.3858.415.6905.9004.8828 1.4352.0267.0749.0501.152.0712.2291a18.8603 18.8603 0 011.4155-.113c.5304-.0323 1.0608-.0436 1.5922-.0255 1.4644.048 2.8966.3075 4.2832.783.2779.0826.5481.1877.8083.3175a5.8422 5.8422 0 011.1575.623l.3098.1848c.1555.093.3111.1873.4619.2839.3592.2317.6994.491 1.0219.7707.3402.2764.6615.5773.9673.8926.0831.0853.1633.1718.2423.2588.7049.3827 1.331.8726 1.915 1.457a14.237 14.237 0 011.4376-.727c.5103-.2226 1.1586-.452 1.6934-.6028.4804-.1353.9551-.2282 1.4366-.2965.2191-.038.4392-.0683.6605-.094l-.0089.0035c.1557-.017.3102-.0315.467-.0449l-.0044-.001c.0667-.0056.1345-.0113.2012-.0158l.1623-.0133c.049-.0044.1201.1107.1246.151l.0055.0413c.0367.0415.0701.0874.0934.1153a2.2704 2.2704 0 01.0868-.0057c.0867-.0077.1868.1477.2379.207l.0463.0546c.0527.0638.1053.1372.1138.2172.0567.4643.1101.9295.159 1.3948.0189.3524 0 .7013-.0578 1.047a257.151 257.151 0 01-.1323 1.0055c-.0712.2351-.1412.47-.2113.7047-.0278.0896-.0589.1779-.0889.2663-.1778.5901-.3863 1.1646-.6346 1.7213.1812.2016.35.4105.5072.6263.0375.0388.0753.0774.1107.1176a.1108.1108 0 01.04-.038c.0534-.0235.0923.0045.1257.0505.3502.3365.6049.7293.7628 1.1777l.0987.2338.048.1174c.126.3402.222.6891.302 1.0425.072.2781.123.5599.157.8448.24.8113.43 1.6413.609 2.4601.028.1288.015.2438-.026.3418l.104.1027.179.1793c.301.3015.608.6185.831.9773.231.3724.401.7706.59 1.1656l.041.0839.083.1682c.09.1837.134.2852.213.5073.133.3703.204.7427.237 1.1354.049.5715.042 1.1945-.207 1.7258a.035.035 0 01-.005.0112c-.114.5136-.394.9899-.82 1.2942-.091.0862-.189.1634-.293.2248-.251.1482-.481.1615-.755.0929l-.035-.009a2.7138 2.7138 0 00-.095-.0235c.044.0369.066.0807 0 .1119-.065.0313-.123.0492-.177.0559.023.0302.026.0626-.023.0895-.107.057-.194.075-.283.0593l.019.1555c.146 1.1767.276 1.4094.39 2.6734a55.713 55.713 0 00.362 3.8702l.057.467c.183 1.4803.388 2.9714.703 4.4277.159.6364.296 1.2773.412 1.9227.163.4911.278.9933.341 1.5056.092.5213.156 1.047.192 1.5772.128.339.191.6834.187 1.0346.017.4721.001.9431-.049 1.4118a9.1096 9.1096 0 01-.2 1.4495c-.094.6567-.267 1.2909-.514 1.9061-.197.6867-.44 1.3602-.716 2.0189-.428 1.0201-.945 1.9675-1.533 2.9015-.5515.8758-1.143 1.7192-1.8191 2.5034-.874 1.0133-1.8702 1.9417-2.9621 2.7247-.6227.4632-1.2799.8792-1.967 1.235-.8406.4361-1.6946.8287-2.6052 1.0938-.5682.1656-1.1464.2797-1.7313.367-1.1486.1711-2.3384.1453-3.4937-.0549-.7449-.1007-1.4777-.2751-2.1704-.5246-.5693-.2057-1.1119-.4418-1.6546-.708a6.3974 6.3974 0 01-.8061-.4676 8.915 8.915 0 01-1.2175-.9563 8.2884 8.2884 0 01-.3614-.3289c-.0567-.0503-.0256-.1253.04-.1431l.02-.0023c-.0255-.0235-.0522-.047-.0778-.0716a.0935.0935 0 01-.0145-.0156c-.0122-.0112-.0255-.0223-.0367-.0335-.0433-.0381 0-.1231.0379-.1433.0144-.0078.0333-.0088.0544-.0067a.095.095 0 00-.0122-.0111c-.0044-.0034-.0056-.0124-.0044-.0213l-.0167-.0133c-.0567-.0505-.0278-.1242.0389-.1433.0326-.01.0863-.0049.1424.0074l.021.0049-.0378-.0358c-.0667-.0582-.0455-.1231.0367-.1431.0614.0036.1221.0121.182.0268l.0449.0123c.0222.0055.0433.0123.0656.0191-.0378-.0348-.0756-.0683-.1123-.103-.0367-.0324.0022-.1253.0355-.1442.0456-.0257.1346.0099.1757.0401.1012.0113.2346.056.2836.0985.1345.1297.2735.2539.4147.3747.0856.0268.1668.0626.2291.1163.1601.1544.3269.2999.497.4407l.1293.0897c.0217.0147.0434.0293.0653.0434.2446.1443.4892.2875.7327.4318.8929.3042 1.7858.6086 2.6775.9117l.1179.0357.8662.1074a7.7202 7.7202 0 001.709-.009 5.805 5.805 0 001.2676-.1241c.7083-.1208 1.4032-.2986 2.0793-.547.7783-.2852 1.52-.6609 2.2438-1.0659.2602-.1466.516-.3021.7673-.4664.0811-.0582.1623-.1176.2435-.178a20.2192 20.2192 0 001.5389-1.2896c.2312-.2137.4536-.4362.6682-.6666.0312-.0337.0612-.066.0912-.0997.2057-.2259.4047-.4596.5949-.7013l.1812-.2057c.7317-.9161 1.3821-1.9015 1.967-2.9162.5806-1.0055 1.0586-2.0637 1.4386-3.1588.123-.3903.229-.7862.318-1.1866.165-.4811.273-.9743.323-1.4776.016-.0986.03-.197.043-.2954l.008-.1552c.001-.0259.002-.0518.002-.0775.022-.1565.041-.3132.056-.4698.009-.1576.014-.3154.015-.4731l-.012-.9676c-.003-.0302-.007-.0614-.009-.0928l-.024-.2136c-.054-.4408-.095-.8826-.148-1.3232 0-.0024 0-.0057-.001-.0091-.02-.1644-.042-.3299-.066-.4955-.012-.0984-.028-.1968-.042-.2953l-.028-.1721a11.278 11.278 0 00-.19-.8909l-.034-.126-.193-.9787-.218-.9631a26.724 26.724 0 01-.352-1.9508 76.5831 76.5831 0 01-.4396-3.1409 7.0935 7.0935 0 01-.0189-.1521 42.406 42.406 0 01-.2802-2.9328 40.821 40.821 0 01-.1401-2.9048c-.0011-.0437.0278-.0794.0623-.0996l-.0031-.1865c-.0041-.1649-.0071.0329-.0085-.1551l-.0021-.5172c.0001-.0431.0005-.0731.0014-.0752-.5941.0413-.9936.0074-1.5672-.023l-.0973-.005a13.1352 13.1352 0 01-1.5678-.17c-.0022.0269-.02.0458-.0501.0514-.0533.0023-.1034.0023-.1545.0035l.0189.0726c.0011.037-.0156.0604-.0512.0705l-.1483.0067c-.198.0083-.3967.0123-.5933-.0146-.1768-.0233-.3492-.0648-.5204-.1141a3.0209 3.0209 0 01-.3236-.0738c-.2824-.0816-.5626-.1913-.8461-.2784-.2891-.0616-.5827-.0816-.8896-.0079-.3246.0771-.5993.217-.9395.132-.0679-.0167-.1335-.0424-.1991-.0694l-.0607-.0043a.6224.6224 0 01-.0316-.0035c-.3547-.0514-.6704-.2773-1.0085-.3982a.5466.5466 0 00-.3495.0264l-.0285.0128-.1123.0839c-.0452.0536-.09.1078-.1342.1621l-.066.0817c-.1212.151-.2502.2863-.4069.3847-.1891.1757-.4137.2786-.6816.2853-.1524.0044-.3036-.028-.4504-.0749-.5537.1723-1.1464.207-1.699.0392-.219-.0337-.4336-.0929-.6393-.1858a2.6192 2.6192 0 01-.2869-.1521c-.3903.1656-.7594.3859-1.1364.5761l-.0849.0429c-.3851.193-.8113.3812-1.2472.3531-.5493-.0359-1.0885-.1096-1.6267-.2026a.067.067 0 01-.0145-.0022l-.074-.0124-.2693-.0475-.2171-.0407-.1109.0428c-.8913.3392-1.8678.6038-2.7634.3665-.3903-.048-.7561-.1801-1.0863-.4049a.6477.6477 0 01-.0334-.0246 1.0113 1.0113 0 01-.1445-.0894l-.0093-.0073-.0085-.0073-.0045-.0023c-.4881-.2258-.7683-.7069-.7194-1.2459-.03-.1713-.0289-.3391.0045-.5179-.159.1889-.3214.3758-.4859.5614-.602.7291-1.1915 1.4728-1.7373 2.247l-.1252.1792a16.1283 16.1283 0 00-.8373 1.3209 43.3424 43.3424 0 01-.8061 1.3312c-.36.4002-.7081.81-1.0435 1.2299l-.1429.1805-.4826.6387a5.9804 5.9804 0 00-.8484 1.3356 13.047 13.047 0 00-.5048 1.0526c-.0489.1084-.0956.218-.1412.3276a10.9324 10.9324 0 00-.3925 1.3155 6.981 6.981 0 00-.1781.9921l-.011.112a6.831 6.831 0 00-.0289.3958.4483.4483 0 01.079.0571l.0812.0292.0656.0195c.1023.032.279.098.2368.1795l-.2146.4117c.0222.0235.0322.048.0178.0749-.1435.2762-.288.5525-.4326.8289a.0593.0593 0 01-.02.0235c.1235.0569.2435.1196.3581.1878.2235.1343.388.2897.5404.4709.1601.0963.3113.2015.4536.3221.1757.1857.3292.3894.4592.6097a3.53 3.53 0 01.2936.6521c.0334.1197.0489.2438.0478.3702-.1345.9554-1.2209.3009-1.242.217-.149-.5772-.3202-.9417-.705-1.3712l-.01-.0068c-.2224-.0985-.4425-.1958-.6727-.2719-.0344.0068-.07.0113-.1056.0168.04.0572.02.1131-.0612.1231a3.7816 3.7816 0 01-1.0596.0581l-.5404-.077a3.4083 3.4083 0 00-.6404.3297l-.0668.0449-.0122.0089c-.5215.4217-.924.9821-1.1998 1.5928a4.8824 4.8824 0 00-.0704.1648l-.033.0835-.0022.0045c-.3603 1.4241-.0389 2.9877.6193 4.2796a35.3748 35.3748 0 001.1253 1.7013l.3803.5001c.2246.2125.4447.4306.6593.6543.0334.0336.069.0671.1045.0995.1135.075.2291.1411.347.197.0455.0155.0922.0301.139.0425.2268.1095.4647.1678.7149.1745.3305.022.6511-.017.9611-.116l.0619-.0206.0456-.0168c.169-.1085.3258-.2438.4748-.4026.0333-.0347.0956-.0347.1667-.0157a1.8404 1.8404 0 00.1146-.1286c.0255-.028.0656-.029.0967-.0079.1056-.0122.3914.1512.3169.2372-.0122.0201-.0278.038-.0411.057.05.0257.1.0548.1445.0851.2335.0652.5784.2996.5504.3701l-.0033.0057c-.0541.1027-.1243.189-.2108.2575l-.0294.0221-.0656.0459c.0923.0582.1701.1252.1312.1722a.7237.7237 0 01-.0589.0986c.189.2349.3769.4719.5637.709a5.693 5.693 0 00.6939 1.1398c.2301.3826.507.7261.8306 1.0324.0266.027.0544.0527.0811.0784.2384.1772.4878.3431.7476.5026l.1119.0679c.059.0357.1579.0804.1112.1666a.0828.0828 0 01-.02.0268c.1635.1075.3325.2092.5071.3032l.0165.0103c.066.0424.1554.1192.0613.182-.0801.0537-.2924-.0917-.3925-.1588-.0189 0-.0412-.0055-.0634-.0122.0334.0178.0662.0372.0996.0561l.0505.0278c.0389.0234.2302.1509.0967.2047-.0656.0055-.1256-.0113-.1812-.0493a3.9703 3.9703 0 01-.1935-.103c.0223.0347.0223.0694-.0333.0919a.3262.3262 0 01-.0567-.0023c.1312.0839.2657.1621.4047.2359l.0225.0142c.0587.0383.1524.1111.0842.1739-.0767.0692-.2879-.0784-.3424-.1119l-.1624-.0974a.12.12 0 01-.04.0091c.0489.0302.0945.0626.1446.0916l.068.0373c.0853.0474.2058.1253.1621.2032-.0436.077-.1733.0136-.257-.0364l-.0901-.0561a.2906.2906 0 00-.012-.0071l-.0035.0134a.0241.0241 0 01-.0032.0067c-.0417.073-.1466.0252-.2189-.0169l-.058-.0355c-.0986-.0598-.1962-.1189-.2931-.1786l-.145-.0899h-.0022c-.5015-.3032-.9651-.6051-1.4021-.9944a8.559 8.559 0 01-.7361-.7417c-.4648-.5268-.8106-1.1296-1.1442-1.7448-.0055-.0102.0023-.0359.0156-.0639a8.8699 8.8699 0 01-.1079-.2326c-.3424.0963-.7249.1242-1.0774.1007-.189-.0124-.3758-.0459-.5615-.0963-.5927-.0827-1.1642-.3545-1.6579-.68-.0311-.0202-.0589-.0425-.0878-.0626a3.9047 3.9047 0 01-.5805-.4028 9.6893 9.6893 0 01-1.0096-.9742 11.2797 11.2797 0 01-.636-.8356c-.2024-.2852-.407-.5703-.6116-.8557-.5681-.8948-.9317-1.925-1.073-2.9776-.0689-.388-.1045-.7807-.0967-1.1722a5.0959 5.0959 0 01.0912-.8545c-.0323-.0314-.0645-.0626-.0968-.095-.0177.0312-.0355.0537-.0467.0424l-.2548-.2567c-.1808-.1834-.3021-.3183-.5102-.6147-.3313-.4731-.5781-.9933-.7616-1.5412-.1323-.3915-.2202-.8368-.2546-1.2674a6.2918 6.2918 0 01-.0312-.2182c-.0711-.5828-.0055-1.1409.0823-1.7159.0056-.0379.0245-.0614.05-.0738.0065-.0455.0142-.0923.0217-.1389-.7365-.7843-1.2666-1.7296-1.2233-2.8712.0136-.3597.0869-.7143.227-1.0454l.0171-.0374c-.6148-.095-1.1025-.5295-1.4689-1.068a3.3662 3.3662 0 01-.0942-.0778c-.6551-.5629-1.1093-1.3598-1.4203-2.2017a5.1711 5.1711 0 01-.4329-1.553c-.0045-.0387-.0071-.077-.0106-.1155a10.017 10.017 0 01-.1205-2.5745c-.1527-.5276-.2769-1.0645-.3619-1.6139-.0401-.2616-.0679-.5235-.089-.7852l-.0022-.0145-.0033-.0471-.0094-.1174a2.8428 2.8428 0 01-.004-.0582c-.1879-2.3959.3447-4.7538 1.2253-6.973.0768-.1996.156-.3987.2377-.5962l.0867-.2063c.884-1.434 2.2114-2.5938 3.3356-3.8187.388-.4226-.2395-1.057-.6289-.6328-.7469.8139-1.5483 1.5934-2.2718 2.43a3.1259 3.1259 0 01-.3834.0065 3.0288 3.0288 0 01-.6472-.1042c-.5214-.0772-.9962-.2886-1.4277-.5995-.577-.2706-1.0696-.7808-1.1186-1.4463a1.3352 1.3352 0 010-.199c-.0533-.3256-.0055-.6667.1301-.9811a1.7122 1.7122 0 01.0912-.255c.1101-.2494.2913-.4887.5126-.651.0056-.0034.01-.0055.0145-.009.0233-.0245.0456-.0492.0711-.0714a1.2565 1.2565 0 01.1201-.0973c-.1501-.2485-.2857-.5034-.4014-.7753-.1256-.2953-.1901-.595-.2257-.9116-.0145-.1253-.02-.2495-.0222-.3735a4.2515 4.2515 0 01-.0156-.1735c-.0278-.443.0233-.9026.1879-1.3165.0122-.0313.0278-.0627.0423-.0951a2.6944 2.6944 0 01.1078-.2797c.1646-.3523.3981-.651.6861-.896a2.8478 2.8478 0 01.5203-.416 2.1665 2.1665 0 01.3748-.1846c.2401-.1275.5481-.2438.7983-.2527.03-.0012.0567.0023.0856.0023.0234-.6422.1057-1.3413.3581-1.923.1467-.4215.3669-.7962.6983-1.0659a1.8606 1.8606 0 01.7244-.4727l.0528-.0183.02-.0056c.2658-.1298.5526-.1812.8473-.18.3436-.018.6938.047.9929.2057.0623.0336.129.075.1924.1197a3.324 3.324 0 01.1623-.2907c.2146-.3458.4737-.6467.7739-.9207.0356-.0324.0745-.0615.1123-.0927a4.53 4.53 0 01.4604-.368 3.838 3.838 0 011.123-.5382 3.7326 3.7326 0 011.4296-.2334l.1004.0042c.0222.0022.0445.0033.0656.0044.4815.0314.9563.15 1.4099.3288.4704.187.8684.4698 1.2387.7942a2.0432 2.0432 0 01.3069-.3423c.0345-.03.0712-.057.1056-.085a1.8728 1.8728 0 01.0834-.0783 2.7114 2.7114 0 01.4259-.3098c.1723-.1017.358-.1722.5504-.2158a2.3432 2.3432 0 01.6104-.122zm-2.2851 46.1125c.0197-.0011 1.0495.3874 1.5626.6385l.0252.0125c.5916.2953.8762.5078 1.4077.887.0356.0257.0723.0649.0723.1029 0 .5523-.1334 1.2276-.5949.9284a9.604 9.604 0 00-.2016-.1271l-.1019-.0619-.0034.0011c.0011 0 .0023-.0011.0034-.0023-1.0052-.6163-2.0671-1.0995-3.1879-1.4451-.0767-.028.4915-.8915.6482-.8434-.09-.0358.3553-.0898.3703-.0906zm10.5615-24.3941c-.6684.0719-1.3367.1427-2.0051.2119a44.7075 44.7075 0 01-1.2798.1298c-.6416.0482-1.2832.0559-1.9225-.0325a6.3427 6.3427 0 01-.6694-.1308 7.4479 7.4479 0 01-.4648.3144l-1.7657 1.3589c-1.1842.9364-2.3428 1.9284-3.3858 3.0235-1.8216 1.9131-3.3052 4.1514-4.238 6.6306-.0846.0502-.15.1378-.1718.2722-.1648 1.0162-.6467 1.943-.8208 2.9551-.1715.9968.0566 1.8442.6791 2.6344.1328.1688.405.1598.572.0458.0388.0768.207.0735.266-.2654.2768-.3014.5135-.6174.6738-1.0087.1181-.2881-.0804-.4879-.3212-.5272.1001-.3624.2129-.7216.3398-1.0769.3758-1.056.854-2.0649 1.4555-3.0112.5293-.8323 1.1419-1.5571 1.8002-2.2842.0078-.01.0211-.0133.0356-.0155l.1367-.1522c.0189-.0213.0579-.019.1012-.0079.0412-.0436.0812-.0883.1235-.132.0411-.0447.0867-.0313.1123.0045.07-.0156.1979.0604.2368.0851.0667.0447.0878.095.0311.1588a.7358.7358 0 01-.03.0324c.0767.0326.1523.0761.2113.1187.2057.0457.4948.2381.4447.2953a11.159 11.159 0 00-.3091.3388c.089.0627.1468.1241.1234.1511a13.7245 13.7245 0 00-1.2008 1.4618 10.7899 10.7899 0 00-.7572 1.2025c-.3358.5906-.6205 1.198-.8729 1.8221a15.338 15.338 0 00-.1034.2852c-.3692 1.0392-.6449 2.1175-.7617 3.2159l-.0048.0741c-.0218.3956-.0303 1.4551-.0708 1.7077a5.502 5.502 0 00.7672.3111c.0501.0145.1012.028.1524.0403a.8532.8532 0 01.0889-.0315c.2447-.0995.5004-.1711.7617-.2058a3.2764 3.2764 0 01.5265-.0265l.075.003c.0779.0023.1546.0079.2324.0158-.0044-.0449-.0066-.0884-.01-.1332-.0222-.0146-.0389-.0346-.04-.0615a7.4424 7.4424 0 01-.0033-1.5101c.0333-.2628.0722-.5246.1145-.7862.0434-.2149.0934-.4262.1479-.6377.1445-.5927.3369-1.1711.5704-1.737.6649-1.6142 1.6178-3.0694 2.5763-4.5168.6994-1.0569 1.361-2.1376 2.0849-3.1767.616-.8848 1.2631-1.7561 1.9536-2.5839.6894-.8265 1.4177-1.6219 2.2038-2.3578.1268-.1175.2546-.2316.3847-.3445.745-.6711 1.5545-1.2227 2.3973-1.7639.0323-.0213.0901.0022.1379.0424l.136-.0841a3.4577 3.4577 0 01.0686-.0412c.0211-.0133.0445.0089.0567.028.0578-.0303.1157-.0592.1735-.0884.0421-.0342.0856-.0667.1281-.1005a40.1758 40.1758 0 01-1.8724-.1394zm7.8387-7.4569c-.5048-.1017-1.0119-.1163-1.5211-.0402a9.5705 9.5705 0 00-.6364.1149c.4783.4195.8629.9563 1.1125 1.5741.2697.6677-.8063.9555-1.0722.2974-.2565-.6349-.7421-1.1219-1.3287-1.4139a3.728 3.728 0 00-.3669.2339 4.0602 4.0602 0 00-.4336.4094c-.2958.3234-.5671.755-.745 1.1823a4.6534 4.6534 0 00-.1524.7181 8.754 8.754 0 00-.0189.1701c-.1096 1.1576.2194 2.2838.7855 3.2805l.0222.0003a10.488 10.488 0 011.5785-.697 14.729 14.729 0 011.3543-.8154 14.1775 14.1775 0 013.1145-1.208l.1246-.0314c.2538-.0652.51-.1227.7673-.173l.1544-.0293h.0023l-.0167-.1668c-.0868-.6543-.3414-1.2617-.6705-1.8231-.2469-.4239-.6193-.8579-1.033-1.2047l-.0022-.0012a3.749 3.749 0 00-.5885-.2696l-.0764-.0268-.3536-.0806zm-13.5542-.9944c-1.0496-.0997-2.0993-.0896-3.1489-.0035a26.858 26.858 0 00-2.046.2841c-.4592.0794-.9095.1913-1.3521.3301l.2532.515c.423.8575.8563 1.7095 1.3669 2.5195.2635.4172.5493.8144.8606 1.1958.2102.2729.4415.5258.695.7583.0667.0818.1379.159.2101.2338.2313.1991.4804.3736.7528.5179.2184.1601.4465.2999.6843.4225l.0896.0452.8339.322c.0445.0127.0895.0254.1346.0374l.0678.0175.1268.0268.0951-.052c.0159-.0086.032-.017.0483-.0252.0267-.0145.0456.0135.0511.0335.0023.008-.0011.019-.0066.0302l.1215-.0661a3.46 3.46 0 00.6685.1986c.1076.0202.2155.0358.3234.0491l.0145.0097a.0726.0726 0 01.0073.0057h.1181c.8313.0807 1.6744-.0259 2.5043-.1759 1.1744-.1188 2.3486-.2498 3.5221-.3723.0222-.0021.0311.0078.0311.0236l.0723-.0067c.1045-.0113.2268.1643.1479.2282.0634.0379.1245.0928.1701.1353l.0267-.0023a4.8826 4.8826 0 01-.3747-.9954l-.1134-.5795a5.3234 5.3234 0 01-.0523-.6734 3.9513 3.9513 0 01-.0133-.2864c0-.0805.0011-.161.0044-.2415a6.9534 6.9534 0 00-.6749-.2406c-.6505-.0804-1.2998-.161-1.9503-.2404a15.7642 15.7642 0 00-1.1698.0861 27.5155 27.5155 0 00-1.3209.1499c-.0412.0044-.1145-.0515-.159-.1164l-.1879.0259c-.0979.0123-.2002-.1847-.0712-.225a5.005 5.005 0 01.1401-.0532l.0701-.0251-.0401.0045c-.0133.0012-.03-.0022-.0489-.0088-.1034.0133-.2068.0267-.3091.039-.1298.0163-.1003-.1558-.0093-.1963l.0438-.0162c-.0769-.0482-.1445-.1801-.0495-.2233l.0128-.0049c.0444-.0178.0878-.0324.1323-.0492a.0692.0692 0 01.0011-.0402l-.1835.0234c-.0167.0022.0631-.1156.1012-.1388l.0067-.0032.0878-.0269c.0134-.038.0845-.1219.109-.1296.3224-.1019.6227-.1935.9362-.2641.0156-.019.0334-.0336.0534-.038a7.6016 7.6016 0 01.5915-.1151c.0134-.0203.0267-.0347.0423-.036a7.564 7.564 0 011.4755-.0435c.0945.0089.189.0191.2835.0312.1813.0203.3625.046.5427.0807a7.3816 7.3816 0 011.321.356l.0989.0376c.1078.0404.2146.0828.3202.1288a4.5184 4.5184 0 01.1991-.5638 1.6143 1.6143 0 01.04-.1051l-.1079-.065c-.0233.0447-.0711.0794-.1023.0605a13.129 13.129 0 00-2.4518-1.3111 12.5082 12.5082 0 00-1.4821-.5492 18.3708 18.3708 0 00-.7628-.2258 10.4432 10.4432 0 00-.3859-.0762 11.0455 11.0455 0 00-2.037-.3522zm25.4641 1.7758c-.0938.163-.1914.3246-.295.4839-.5027.7739-1.1053 1.5002-1.7887 2.1334.1782-.0005.356.0063.5316.0229.3028.0287.5993.0793.8884.1501.0235-.0189.0497-.0284.0707-.0134l.0754.0524c.6201.1684 1.2023.433 1.7297.7876l-.0094-.07a.8472.8472 0 00-.0055-.035 4.26 4.26 0 00.0067-.4118c-.109-.8064-.3814-1.5492-.6927-2.3007-.0059-.0145-.0017-.0335.0073-.0527a7.3452 7.3452 0 00-.5185-.7467zm.1431-6.3408a6.535 6.535 0 00-.6916.1655 5.559 5.559 0 00-1.2498.3412c-.5549.198-1.093.4284-1.629.6724-1.0407.4741-2.017 1.0738-2.9054 1.7964a6.2972 6.2972 0 00-.1657.1331 8.822 8.822 0 00-.576.5457c-.1923.2103-.3858.4207-.5782.632-.2357.2484-.507.4731-.7205.7416a1.3863 1.3863 0 00-.1156.1757l.1256.0435c.1056.0358.0879.2349-.0167.2058a1.028 1.028 0 01-.1023-.0356c.0145.019.0245.038.0267.0547.0067.0536-.0344.1276-.1.1086a.7428.7428 0 01-.0901-.0315.4204.4204 0 00-.0156.1029.0844.0844 0 00.0178.0057c.0734.0258.2113.1409.2313.2193.0156.0604-.0356.1251-.1012.1073a.8707.8707 0 01-.1434-.056c.0311.0303.0556.0628.0578.0907.0044.0515-.04.1241-.1012.1074-.1134-.0314-.2046-.0794-.2802-.1398-.02.0267-.0489.048-.0723.0414l-.0433-.0134a.6267.6267 0 01.0332.0343l.0157.017c.3069.3333.5748.7025.7894 1.0997a.294.294 0 01.0379-.0337c.1-.085.2034-.1678.3068-.2482l.0313-.0275.0321-.0274-.2324.0771.0052-.006c.0164-.0212.0675-.0917.0914-.1152l.0057-.0052a5.1735 5.1735 0 011.043-.7303 4.6566 4.6566 0 01.7672-.4039c.6394-.2986 1.291-.5256 1.9603-.7359.1001-.0324.2002-.0671.3003-.0985.0289-.0101.0344.0022.03.0224l.0522-.0157c.0934-.0302.2524.1353.1891.2125a1.539 1.539 0 01.1086.099l.0237.0241.0267-.0079c.0794-.0246.2134.1.2986.1882l.0627.0669c.0479.0514.1413.1577.0267.1992l-.1434.0491c.0044.0291-.0078.0537-.0523.0705a5.2657 5.2657 0 00-.1479.0526c.0297.0261.0588.0531.0875.0805l.0426.0413c.0504.0517.1698.1657.0644.216l-.0132.0055-.1368.0492c.0178.0403.0134.0784-.0467.1007a21.8106 21.8106 0 00-2.3395.9565 7.2373 7.2373 0 01-1.8079.7101c-.0523.0169-.1657-.0625-.2124-.1419l-.0948.0281a1.5933 1.5933 0 01-.0475.0132l-.0156.0034c.119.3188.2068.6644.2557.9988a1.261 1.261 0 01.0134.0918c.1245-.0101.2479-.0191.3725-.0257a15.1623 15.1623 0 012.5974.0849c.3492-.2092.685-.4385 1.0063-.6867.0979-.0761.1946-.1544.2902-.2339.5738-.5011 1.093-1.0636 1.5534-1.6711a11.098 11.098 0 001.1074-1.7996 11.5524 11.5524 0 00.6761-1.8491c.1579-.5828.2124-1.1499.2524-1.7528a5.3483 5.3483 0 00.03-.2953l-.0009-.0421-.0013-.0205c-.0111-.2113-.0323-.4228-.0556-.6331zm-8.1469 7.4912a1.6933 1.6933 0 01-.0789.0257c.0155.0347.03.0684.0444.1029l.0017-.0007.1051-.0832a.3658.3658 0 01-.0723-.0447zm7.9913-9.0769c.2001-.0749.3513-.0894.4536-.0425a12.4321 12.4321 0 00-.4536.0425z" fill="#2B283A"/><path fill-rule="evenodd" clip-rule="evenodd" d="M90.7265 56.0924c-.7556-.3185-1.4298-.8498-1.9227-1.5285-.1714-.236-.2158-.4852-.1798-.713.0404-.2563.1871-.4885.3872-.6443.2007-.1563.4517-.2333.6944-.194.2109.0341.4209.1534.587.4009l.0347.0495c.2931.4096.6749.7457 1.11.9624.4194.2088.8884.3062 1.3737.2496.9244-.1079 1.5615-.6245 2.2387-1.326.084-.0886.168-.1799.2524-.2727a.3982.3982 0 01.2094-.1666c.0911-.0315.1943-.0297.2888.0044a.4598.4598 0 01.2272.178.446.446 0 01.0718.288c-.062.7269-.4298 1.3757-.9523 1.8852-.5803.5658-1.3495.9572-2.0736 1.0945-.7978.1512-1.6108.0429-2.3469-.2674zm2.7232-11.2151c.8488.5331 2.1421 1.7762 1.229 3.0979-1.0748 1.1654-2.6223-.1708-3.3849-.7751-.7071-.4683-1.5016.7362-.8455 1.283 5.5104 4.2157 7.7466-3.4664 3.4307-4.2327-.4752-.0844-.6517.4619-.4293.6269zm-9.8746-4.904c.0938-1.2028 1.8667-1.476 2.0431-.2857.1579 1.0662-.028 2.0457-.4928 3.0057-.4441.9171-1.5603.4892-1.6447-.3459-.1132-1.1194.0361-1.6258.0944-2.3741zm13.4956-.5326c.2472-.3345.604-.5628 1.0316-.4338 1.3359.4034.9422 2.3631.473 3.3171-.2549.518-1.0789.6493-1.4513.1932-.607-.7438-.8977-2.2292-.126-2.9619a1.0113 1.0113 0 01.0727-.1146zm-11.964-4.7309l.211-.0382c.6528-.1166 1.4645-.2287 1.9263.3136.2449.2876.3292.8221 0 1.0973-.5791.4844-1.2193.2967-1.9133.3377-.5719.0339-1.1216.1317-1.6725.2944-1.2085.3569-2.1933 1.0085-3.2255 1.724-.1354.0938-.2737-.0851-.209-.216.5958-1.206 1.7505-2.1966 2.9072-2.8005.6173-.3223 1.2928-.5897 1.9758-.7123zm10.7461-.5401l.1615.0341c1.7576.3797 4.0417 1.138 4.8737 2.922.032.2523-.002.3063-.029.3416l-.009.0118c-.023.0302-.041.0717-.146.1061a3.6366 3.6366 0 01-.089-.023c-.382-.1033-.6838-.2457-.976-.3934l-.3169-.1613c-.3676-.1862-.7385-.3657-1.1315-.4982-.8388-.2827-1.7015-.4818-2.5776-.5882-.1899-.023-.3727-.0892-.517-.2027-.1369-.1078-.2415-.2569-.2892-.4552-.0618-.2565-.0441-.4508.0891-.6823.1002-.1738.2436-.2943.4082-.3635.1677-.0705.3588-.0871.5487-.0478z" fill="#2B283A"/></svg>