<svg width="265" height="431" fill="none" xmlns="http://www.w3.org/2000/svg"><path d="M168.105 173.372c.029.017.028.034-.001.052-.058 2.552-4.111 29.552-4.264 29.686-6.947 49.154-17.766 97.384-23.176 146.801 1.634 2.134-.721 5.232 0 7.759.562 3.167-6.009 5.058-6.885 5.017-1.38 1.253-4.015 1.023-5.337 2.334-.932 1.507-1.125 7.15-1.095 7.026 0-.002 0-.003.001-.005 0 .002-.001.004-.001.005.037.412 25.232 11.74 36.94 18.404 2.515 1.325 4.953 3.66 7.702 4.846 1.311.659-.719 2.933-1.48 4.121-.954 1.581.418 3.273-1.851 2.809-1.86 1.535-13.036.388-15.825 0-10.572-1.188-20.684-1.04-31.168-2.809-2.446-.437-4.862-.926-7.134-1.945-2.038.757-4.276.225-6.356-.049-5.508-1.233-4.775-7.902-4.075-12.064.582-5.426 2.877-10.57 5.973-15.126-.402-.361-.767-.746-1.161-1.124-2.722-.056-4.37-2.86-3.876-5.258-.579-1.13-1.289-2.174-1.532-3.415-1.3.457-3.23.753-3.6788 2.191-.621 2.231-2.4902 4.118-5.0253 4.201-.9978 1.081-2.4738 1.823-3.9446 2.098 2.6254 8.146 3.199 17.541 5.2484 26.008.6908 3.889 1.322 7.789 1.8489 11.702.8166 3.757-.0565 8.455-4.3938 9.691-3.7761.869-7.7495-.138-11.5891-.143-3.9687-.479-8.2955.228-12.0122-1.38-3.9892-2.114-3.6389-6.606-3.3333-10.333.7998-7.857 1.8237-15.89 4.7379-23.313-2.1436-2.355-.7258-5.886-.3966-8.659 0 0 2.0954-7.479 2.0954-11.449-3.1446.009-6.713-3.514-4.7311-6.445-.223-8.756 5.5174-16.471 8.2307-24.603 5.066-11.299 7.949-23.103 11.5298-34.886 2.9615-9.292 6.7112-28.116 6.7096-28.105 3.4374-23.019-4.4765-45.542-10.4458-67.478-2.2032-8.506-1.9518-15.241-3.4756-24.882a.0691.0691 0 01-.0046-.029c.0015.01.003.02.0046.029.7255 1.968 85.6635-.263 87.2255-1.228.001-.019.001-.036.001-.052z" fill="#fff"/><path fill-rule="evenodd" clip-rule="evenodd" d="M170.477 172.447c-1.551 4.648-3.944 31.305-3.944 31.305s-22.517 99.194-24.006 151.303c1.508 4.357-2.822 7.52-6.816 8.157l-.544.314c-1.821 1.045-3.703 2.068-5.695 2.714l-.032.019c-.039.023-.078.046-.118.067a.9243.9243 0 01-.307.101c.111 1.334.533 2.586 1.076 3.804 5.339 1.232 10.26 3.754 15.169 6.27l.001.001c2.71 1.389 5.416 2.776 8.187 3.943 1.521.936 3.986 1.997 6.718 3.174 6.296 2.71 14.005 6.03 14.817 9.818l.031.165c.468 2.434-.84 5.437-3.611 5.667 1.446 1.071.499 3.234-1.077 3.651-1.248.332-2.567.352-3.879.372h-.001c-.678.01-1.354.021-2.018.074-18.387.577-36.936-1.048-54.858-5.17-1.505-.348-3.073-.802-4.341-1.701-5.8763-4.652-2.692-13.227.04-20.586.885-2.382 1.722-4.636 2.189-6.589-.694-.11-1.38-.262-2.055-.462l-.15-.045c-.656-.198-1.333-.436-1.842-.899-.007-.007-.014-.013-.02-.02l-.015-.015-.01-.012-.014-.014c-2.495-.035-1.154-4.23-.243-7.08.285-.893.528-1.653.599-2.114-.447.951-.865 1.923-1.285 2.897-.833 1.932-1.669 3.872-2.729 5.667-.8178 1.241-2.3624.917-3.7657.622-.4808-.101-.945-.198-1.3577-.228.5379 9.872 2.8934 19.497 5.3129 29.061.1435.579.2935 1.167.4455 1.759l.001.001c1.933 7.537 4.079 15.903-6.2393 18.141-7.6665 2.009-25.9349 1.241-29.2026-7.154-.7208-5.113.2783-10.278 1.2645-15.375.3323-1.718.6631-3.428.9261-5.125l.1831-.959c.1585-.833.3155-1.667.4726-2.5l.0003-.002c1.0771-5.72 2.1552-11.445 3.7321-17.053.2487-1.047.5548-2.072.8842-3.091.0429-.594.0741-1.189.0356-1.786-.0504-.781-.1981-1.546-.3547-2.313-.0202-.097-.0382-.21-.0567-.331-3.2281-1.49-5.6252-3.174-5.9344-4.993-.2772-1.51.1788-3.038.6151-4.501.0619-.207.1235-.414.1826-.619l.0277-.096c3.0863-10.841 6.9992-21.363 10.8877-31.82h.0001c9.2098-24.766 18.283-49.165 15.9133-76.553-.6314-9.759-3.295-19.119-5.9587-28.479-2.5655-9.016-5.1312-18.032-5.8821-27.406-.8803-3.812-1.6753-7.663-1.8032-11.592-.5439-.128 90.4537-2.384 90.4537-2.384zm-97.5567 239.02c-2.6551-1-4.922-1.854-4.4718-5.173 9.2044 3.723 19.5311 4.376 29.3654 3.478-.4462 1.165-1.3446 1.96-2.6003 2.492-7.0861 2.438-15.1355 1.831-22.1071-.726l-.1862-.071zm33.0207-20.295c.552 2.729 3.755 3.304 6.308 3.762.301.054.592.106.869.16 6.282 1.315 12.626 2.371 19.005 3.118 12.362 1.491 24.868 1.748 37.29 1.182.114-.049.214-.113.312-.177.193-.125.382-.247.663-.246l.051.001c.024 0 .047.002.07.003a1.7198 1.7198 0 01-.514-.526c-6.458-.71-12.927-1.352-19.397-1.993-14.925-1.48-29.855-2.961-44.657-5.284zm5.334-25.601c5.178.81 10.413.34 15.541-.55-.799 1.653-.928 3.646-.565 5.542-2.542.601-4.821 2.215-7.094 3.824-3.449 2.443-6.882 4.875-11.195 3.735.258-.811.53-1.625.803-2.442 1.107-3.312 2.23-6.671 2.51-10.109zm-37.3172-3.828c.0172.03.0263.066.0229.109-.0249 4.994-.5311 9.97-1.2668 14.913 4.5457-4.9 12.1538-6.141 18.4195-4.103l-.0274-.319c-.0201-.226-.0415-.453-.0629-.68-.1499-1.592-.302-3.207-.0439-4.776l-.2871-.08c-.6207-.171-1.4023-.376-2.3022-.611-3.7864-.99-9.6662-2.528-14.4521-4.453zm7.5851-180.256c28.2601 6.006 58.0311 5.551 85.9991-1.714-.254 1.751-.516 3.5-.779 5.25-.502 3.339-1.003 6.678-1.441 10.026-2.769 22.211-7.472 43.743-12.159 65.197-6.713 30.731-13.391 61.301-14.297 93.478-.818.716-.756 1.873-.051 2.625-.076-.08-.036-.025.022.056.009.012.018.025.028.038l.062.09c-.001.006.002.023.007.046.002.011.005.024.008.038l.046.183c-.006.004-.008.053-.01.113l-.004.205c-.282 1.621-2.102 2.195-3.67 2.593l-.772.193c-6.291 1.487-12.622 2.97-19.091 3.563-.298.154-1.98.156-3.819.159-2.6.004-5.513.008-5.27.441-.084-.003-.168-.004-.251-.005 4.675-15.155 9.166-30.369 13.657-45.582 2.137-7.241 4.275-14.482 6.432-21.716 9.94-31.241 19.144-61.311 13.617-94.159 2.594-1.645 8.489-12.271 8.058-15.014-1.201 1.46-2.276 3.007-3.351 4.555-1.631 2.348-3.262 4.696-5.335 6.737-.385-2.084-.829-4.157-1.273-6.23-.13-.61-.261-1.219-.39-1.829-.022-.102-.206-.081-.194.025.343 3.134.553 6.282.705 9.434-.439.683-.699 1.752.1 2.259 2.937 35.824-7.378 68.47-17.933 101.876-2.316 7.33-4.643 14.696-6.845 22.14-3.396 13.182-8.579 25.736-14.7132 37.978-.7107-.151-1.4253-.3-2.1429-.451-9.1376-1.917-18.7516-3.934-26.6435-8.569 2.9749-12.209 7.3307-24.118 11.6897-36.036 6.2389-17.058 12.4845-34.134 14.6976-52.133l.0526-.413c1.7074-13.635.8899-24.874-2.5407-38.222-1.0091-3.838-2.1842-7.636-3.3589-11.434-2.2869-7.394-4.5727-14.784-5.6313-22.453-.7477-4.513-1.8061-8.965-3.2155-13.338z" fill="#2B283A"/><path fill-rule="evenodd" clip-rule="evenodd" d="M224.951 97.2631c-2.461.2416-4.922.4829-7.383.7246-11.787.9005-23.569 2.7813-35.266 3.9103-.291-.474-.861-.396-1.207-.067-1.167-.102-2.476-.994-3.533-.066-.034-.005-.069-.011-.103-.014-1.883-3.613-3.184-7.4669-4.447-11.3258-.806-2.3726-1.89-4.6693-3.894-6.2622-3.421-2.3743-11.257-7.1889-15.273-6.9865-.067-.7191-.402-1.4602-.953-1.9391 1.213-2.0681-3.637-3.4175-3.979-3.1778.219-6.9096-3.031-12.9101-10.197-14.2861-6.421-1.3378-15.552-1.5626-19.005 5.1472-.38-.0427-4.26-.0629-4.635-.0209-.584-.7392-6.994 6.2659-4.367 8.7046-23.4868 10.3902-36.8417 9.1505-43.3426 38.3606-.8788 2.744-.9428 5.746-1.8709 8.429-3.3016 7.71-5.9796 15.92-6.6461 24.309-1.6097.412-1.7948 3.251.0697 3.661.7122.157 1.3078.372 1.8271.778-.406 6.875 1.2567 22.579 2.3043 22.531 2.136 6.798 11.6641 8.717 18.4096 6.328-1.1628 2.188 0 3.563 0 4.732 24.2719.919 50.8109.39 75.0769 1.649 3.104-.044 6.369.762 9.43.298 1.867-.447 1.87-3.383-.023-3.746l8.275-1.798c-.185-.069 3.411-2.461 6.129-6.931 2.529-5 .808-11.036 1.954-16.475 8.953-.732 18.054-1.045 26.909-2.562 1.207 3.613 6.433-.707 8.095-2.445a.027.027 0 00-.007-.008c.804-.22 1.449-.974 1.471-1.866.564-.806.682-1.941.141-2.72 2.478-14.3 6.256-28.901 7.622-43.336.483-.107.937-.319 1.323-.645l-.031-.031c.653-.7279.78-1.9846-.309-2.6032-.878-.4995-1.611-.3445-2.565-.2507z" fill="#fff"/><path fill-rule="evenodd" clip-rule="evenodd" d="M120.158 61.3623c.731-1.8378 3.204-1.1234 2.928.8074-.165 1.1565-.798 2.378-1.367 3.3917-.464.8251-.992 1.6303-1.709 2.2488a70.4675 70.4675 0 003.957 3.4251c1.481 1.1878 3.039 2.2826 4.649 3.2888 1.412.8825 2.887 1.6643 4.218 2.6713 1.237.9361 2.364 2.0619 2.938 3.5316.611 1.5651.346 3.1814-.104 4.7455l-.052.1768c-.46 1.5495-1.256 3.4174-.152 4.8773.562.7432 1.378 1.2696 2.083 1.8637a16.208 16.208 0 011.755 1.7193c1.176 1.3448 2.133 2.8579 2.737 4.544l.054.1531c.517 1.4923.895 3.3213.196 4.7863-.201.42-.848.284-.96-.125-.254-.927-.241-1.897-.454-2.837-.222-.9774-.59-1.905-1.072-2.7827-.932-1.6979-2.194-3.1482-3.686-4.3743l-.446-.3631c-1.164-.9548-2.233-1.9678-2.469-3.548-.252-1.6907.425-3.3012.86-4.9014.304-1.1152.403-2.1841.075-3.1919-.401.6541-.947 1.2749-1.38 1.8287-.861 1.1033-1.73 2.1998-2.597 3.2985-.889 1.1265-1.757 2.2708-2.582 3.4448-.37.5252-.735 1.0534-1.099 1.5822-.274.3975-.656.7946-.955 1.2.073.2168.067.4668-.064.6443-1.583 2.139-3.835-2.3241-4.423-3.4517-1.196-2.2964-2.086-4.7359-3.286-7.0318-1.244-2.3799-2.66-4.6965-4.238-6.8692-.955-1.3143-2.025-2.5487-2.898-3.9047-2.057 1.8656-4.765 3.1163-7.251 4.2504-2.733 1.2459-5.5712 2.2638-8.3725 3.3446l-.8275.3214c-4.8268 1.8838-9.7715 3.9534-13.7834 7.2994-4.7145 3.9321-7.5035 9.4125-9.5799 15.0875-2.3902 6.533-4.3676 13.243-6.2109 19.948a361.34 361.34 0 00-2.6798 10.335c-.7415 3.046-1.3561 6.122-2.2144 9.137 1.7408-.062 3.7261.612 5.2123.807 6.7734.886 13.4556 2.3 19.8505 4.747.7899.302 1.0184 1.091.8464 1.73.4555-.128.9107-.258 1.3663-.386-.4991-.765-.2609-2.132-.2217-2.98l.0024-.058c.0404-1.13.1629-2.26.2424-3.388.1513-2.149.3482-4.282.6101-6.419l.0669-.534c.2968-2.325.5162-4.664.84-6.985l.0383-.265c-.1553-.594-.3361-1.18-.5259-1.764-.5057-1.556-1.2194-3.02-1.8449-4.527-.0737-.177.1789-.279.297-.173 1.0593.953 1.9007 2.162 2.5767 3.427.0117-.06.0221-.12.0343-.179l.0771-.38c.1903-.926.4216-1.9.9896-2.651.0605-.08.1801-.097.2373 0 .5437.92.6045 2.085.6881 3.131.0946 1.185.1065 2.384.0898 3.571-.0326 2.321-.1962 4.648-.3265 6.964-.1278 2.277-.3788 4.525-.7023 6.779l-.0615.423c-.1582 1.072-.2877 2.159-.4963 3.224l-.0589.29c-.1115.529-.1801 1.274-.4021 1.893 5.7115-1.593 11.432-3.15 17.163-4.679 4.142-1.106 8.289-2.195 12.433-3.291.219-.394.491-.762.831-1.091 1.12-1.084 2.604-1.568 3.965-.734.111.069.12.242 0 .308-.261.142-.522.288-.779.441l2.489-.674c1.861-.505 3.743-1.135 5.647-1.486 3.507-1.731 7.279-2.983 10.973-4.221l.435-.148c1.892-.645 3.848-1.367 5.803-1.724 1.43-.262 3.11.054 3.685 1.52.728.48 1.414 1.044 2.075 1.599.478.401.936.827 1.402 1.242l.086.075c.381.331.683.552.777 1.079.048.271-.125.639-.46.603-1.026-.11-1.86-1.299-2.555-2.009-.538-.549-1.079-1.116-1.57-1.719-.286.155-.678.128-.86-.217-.944-1.787-3.529-.549-4.96-.125l-2.049.606c-1.024.304-2.049.609-3.071.92-2.81.853-5.606 1.808-8.442 2.592.254.279.219.775-.263.964-2.22.871-4.655 1.321-6.961 1.919-1.456.377-2.911.757-4.365 1.139-.25.404-.429.861-.504 1.393-.278 1.957.257 4.214.779 6.106l.078.283c.429 1.521 1.06 3.386 2.372 4.346.321.235.729.398 1.14.435 2.569-1.323 5.138-2.645 7.709-3.965.476-.245.916.086 1.023.48.906-.149 1.811-.383 2.634-.663 1.384-.47 2.465-1.366 3.763-1.986 2.51-1.199 5.074.274 7.322 1.394l.518.254c1.008.489 3.105 1.429 3.588.091.468-1.294-1.011-2.677-1.966-3.259-1.139-.695-2.464-1.066-3.751-1.376-.735-.177-1.479-.321-2.227-.426-.848-.12-1.725-.102-2.542-.377-.406-.137-.469-.782 0-.888 1.258-.286 2.759.026 4.072.345l.686.169c1.322.325 2.657.732 3.862 1.379.876.471 1.8 1.187 2.404 2.062.525-.487 1.178-.471 1.857-.29l.37.103c.609.169 1.103.285 1.696.168.079-.432.16-.863.246-1.295.845-4.242 1.771-8.469 2.794-12.672 1.764-7.251 3.805-14.422 6.106-21.52l.231-.71c.53-1.623.957-3.392 1.813-4.883.809-1.411 2.106-2.223 3.646-2.653 1.748-.488 3.585-.744 5.368-1.073.398-.074.797-.144 1.195-.216-.337-.607-.588-1.297-.814-1.826l-.04-.0918c-.486-1.1081-.922-2.2361-1.344-3.3701l-.315-.8526c-.761-2.0529-1.547-4.0722-2.617-5.9923-1.127-2.0207-2.621-3.6728-4.484-5.0401-3.799-2.7882-8.377-4.2103-12.061-7.1899-.151-.122.043-.3308.196-.2535 2.487 1.2499 5.173 2.0998 7.76 3.1174l.511.2014c2.045.8108 4.122 1.6933 5.892 3.0059 1.973 1.4637 3.527 3.2814 4.696 5.443 1.151 2.1307 1.887 4.5157 2.7 6.7915l.217.6064c.328.9094.666 1.816 1.054 2.7009.308.7025.882 1.5048 1.143 2.3068.715-.124 1.429-.248 2.144-.367 15.489-2.5865 31.151-4.106 46.848-4.5506.614-.0174.932.5687.841 1.1044-1.506 8.9082-2.845 17.8462-4.314 26.7602-.641 3.891-1.295 7.779-1.964 11.665-.339 1.968-.731 3.929-1.052 5.901-.259 1.592-.448 3.197-.893 4.752-.399 1.395-1.011 2.74-2.017 3.804-1.085 1.147-2.598 1.702-4.122 1.964-3.868.666-7.835.938-11.734 1.381l-20.76 2.362c.304 2.757.326 5.472.187 8.262l-.079 1.523c-.065 1.224-.143 2.451-.319 3.663-.22 1.521-.916 2.809-1.94 3.945-.941 1.043-2.084 1.933-3.196 2.786-1.154.885-2.347 1.74-3.704 2.288l-.176.07c-1.19.464-3.424 1.184-5.051.921.213 1.066.625 2.212.26 3.266-.17.49-.81.734-1.202.318-.777-.826-.838-1.917-1.022-2.994-.192-1.121-.357-2.246-.503-3.374-.284-2.181-.505-4.381-.572-6.58-.069-2.258-.043-4.52.079-6.776.063-1.158.14-2.316.287-3.467.063-.491.127-.982.2-1.472.027-.178.057-.356.088-.533l-1.863.21c-2.857.319-5.715.607-8.593.652-.34.005-.603-.15-.774-.376-.182.297-.5.51-.955.508-4.018-.015-7.76-1.329-11.415-2.877-1.842-.781-3.656-1.626-5.5-2.4-1.722-.723-3.563-1.238-5.244-2.052l-4.416 2.316c-.032.114-.073.222-.118.312-.287.587-.854.905-1.433 1.145-.556.23-1.131.302-1.692.244-3.349 1.755-6.698 3.508-10.05 5.257l-3.353 1.748c-6.68 3.478-13.3331 7.013-20.0549 10.41l-.4949.249c-2.3217 1.164-4.8148 2.344-7.3914 3.225-.0458.652-.0169 1.286.0378 1.976l.0131.151c.0769.816.2416 1.838-.4128 2.419-.3404.302-.9485.303-1.18-.153-.42-.825-.0429-2.127.0902-3.024.0472-.319.1048-.647.1899-.966-2.9538.88-5.9971 1.306-9.0029.812-2.9266-.48-5.1932-2.324-7.0205-4.579-1.9285-2.38-3.2989-5.153-4.0342-8.126-.8368-3.383-.8914-6.877-.8717-10.342.0208-3.69.1573-7.399.6061-11.064-.4917-.116-1.037-.216-1.5339-.181-.2462.394-.7236.559-1.155.508-.9381 1.035 1.4414 2.092 2.2019 2.357.264.092.2357.521-.0688.508l-.1919-.009c-1.175-.063-2.3889-.263-3.0798-1.355-.5536-.875-.3872-1.912.2727-2.626.4359-4.122 1.478-8.135 2.4478-12.155.9517-3.947 2.0102-7.867 3.132-11.769l.503-1.746c1.7663-6.116 3.6126-12.283 6.0491-18.1563 1.2166-2.9329 2.6182-5.8119 4.5181-8.3692 1.7709-2.3839 3.8618-4.4238 6.2651-6.166 4.4803-3.2483 9.7376-5.2109 14.903-7.0808l.2313-.0837c2.6768-.9683 5.3466-1.9482 7.9936-2.9974 2.34-.9278 4.582-2.1041 6.912-3.0459a10.9431 10.9431 0 01-.219-.4168l-.043.0362c-.008.0059-.015.0116-.023.0169-.234.1624-.579.0826-.772-.0996-.545-.5143-.361-1.0853.003-1.6187l.047-.0679c.445-.6234.842-1.2825 1.253-1.9285l.257-.404c.69-1.0793 1.414-2.1657 2.333-3.0577.426-.4133.892-.7225 1.386-.953-.042-.0893.328-.2718.433-.1799 1.564-.5726 3.364-.4526 5.07-.2948m61.466 93.9281l-2.175.247c-2.393.273-4.787.536-7.182.797l-5.2.565c-.013.296-.049.586-.056.81-.034 1.154-.059 2.309-.083 3.464-.048 2.314.005 4.631.157 6.941.148 2.238.342 4.477.644 6.7l.062.444.036.234c.247.024.489.141.691.382.439.525 2.032.015 2.654-.207 1.023-.364 1.986-.979 2.875-1.595.868-.603 1.65-1.305 2.401-2.044l.615-.608c.611-.608 1.223-1.255 1.597-2.019.508-1.036.574-2.308.723-3.437.183-1.388.402-2.776.632-4.157m-61.534-21.089l-.226.06c-8.196 2.177-16.379 4.419-24.5998 6.501-4.0682 1.03-8.1558 1.986-12.229 2.996l-.6595.165c-3.2134.812-6.4653 1.79-8.9261 4.121-.0908.086-.2226-.046-.1371-.137 2.652-2.824 6.4238-4.019 10.0453-5.055.6694-.191 1.3397-.378 2.0093-.569-4.9252-1.756-9.9281-3.283-15.0466-4.373-1.3179-.28-2.6513-.486-3.9682-.768-.9185-.197-1.8155-.481-2.7242-.716l-.7148-.18-.0095 2.259c-.0119 3.2-.0062 6.397.157 9.597l.0309.592c.1905 3.561.4878 7.195 1.7512 10.552 1.0268 2.729 2.6633 5.299 4.8034 7.286 1.0829 1.005 2.2472 1.788 3.6863 2.174 1.3363.359 2.7363.401 4.11.305 6.5889-.459 12.4542-4.039 18.1777-7.002 9.3617-4.848 18.7247-9.692 28.0957-14.521a4.6155 4.6155 0 01-.709-.597c-1.256-1.298-1.919-3.075-2.355-4.795-.463-1.832-.74-3.795-.772-5.686m12.134 12.949c.083-.044.178.011.182.105.029.715-.366 1.421-.662 2.066l-.031.069c-.359.799-.752 1.587-1.159 2.362-.813 1.55-1.657 3.083-2.539 4.595-1.772 3.04-3.742 5.953-6.07 8.6-.526.598-1.391-.168-1.053-.812 1.627-3.105 3.524-6.036 5.476-8.941.977-1.455 1.954-2.911 2.941-4.359.412-.604.829-1.206 1.257-1.799l.259-.355m98.599-60.1467c-8.224.2484-16.439.7848-24.624 1.6254a337.4776 337.4776 0 00-22.738 3.1193c-1.575.271-3.148.553-4.72.846l-.942.177c-1.572.298-3.492.421-4.891 1.261-1.475.885-1.874 2.735-2.365 4.26-.577 1.794-1.139 3.593-1.686 5.396-2.173 7.161-4.158 14.383-5.929 21.653-.879 3.609-1.659 7.238-2.481 10.86-.73 3.218-1.535 6.399-2.377 9.585.104-.081.231-.142.385-.175 4.179-.889 8.445-1.275 12.687-1.767l.41-.048c4.388-.516 8.776-1.028 13.166-1.521l29.07-3.27c1.714-.192 3.551-.219 5.219-.679 2.837-.782 3.501-3.953 3.977-6.479l.015-.076c1.435-7.631 2.577-15.329 3.915-22.979m-68.168 28.123c-1.128-.074-2.673-1.108-3.529-1.034.449.755.652 1.615.393 2.534-.721 2.556-3.981 1.233-5.552.452-1.287-.64-2.531-1.424-3.956-1.724-1.615-.34-2.709.302-4.074 1.043-1.12.608-2.341 1.044-3.596 1.27-.667.12-1.301.133-1.934.086a.7921.7921 0 01-.13.086l-.334.175c1.513.07 3.055.537 4.463.964 1.46.443 2.892.977 4.317 1.523l1.403.539c3.458 1.325 7.038 2.582 10.781 2.571.269 0 .489.074.663.196m-5.229-16.691c1.115-.136 2.144.01 3.035.736 1.075.875 1.796 2.327 3.341 2.422.45.028.555.661.107.793-1.149.341-2.08-.281-2.864-1.089l-.526-.55c-.774-.802-1.488-1.422-2.802-1.374-1.407.052-2.816.377-4.213.542-1.584.187-3.167.347-4.755.484-.074.007-.086-.109-.017-.126l1.779-.443m5.839-5.953l.184-.019c1.619-.157 3.1-.163 4.546.708l.277.168c1.304.792 2.723 1.726 3.538 3.009.133.21-.087.457-.31.403-1.567-.376-2.713-1.525-4.03-2.386-1.479-.965-3.007-.806-4.693-.656-1.632.145-3.264.345-4.881.617-1.519.255-3.042.659-4.577.787l.001-.003c-.176 0-.276-.263-.097-.353 1.557-.777 3.36-1.145 5.054-1.5M92.3729 91.6101c-.002-.128.1781-.1759.241-.0651 1.0534 1.8534 1.6041 4.1253 2.1653 6.1672.5877 2.139 1.0622 4.2998 1.4884 6.4768.8634 4.407 1.3234 8.789 1.3546 13.281.0043.641-1.0405.812-1.1427.155-.6786-4.37-1.3287-8.744-2.0125-13.112-.344-2.197-.7444-4.386-1.1275-6.5762m9.4625-3.0984c-.078-.2556.294-.3411.389-.1074 2.114 5.1896 2.83 11.071 1.473 16.546-.208.837-1.434.475-1.278-.352m26.685-20.6979c-.01-.1913.238-.2215.332-.0898 1.001 1.4114 1.417 3.3017 3.174 4.0312.878.3641 1.865.3007 2.641.9159.518.4114.915 1.0609.526 1.6839-.125.2014-.477.3022-.647.0835-.248-.3187-.38-.7003-.717-.9392-.477-.337-1.119-.3579-1.665-.5162-.706-.2048-1.329-.5632-1.839-1.0956m14.931-27.6154c.103-.0526.202-.019.268.0703.094.1272.083.251-.033.3382.154.3152.337 1.105.363 1.22.105.466.217.9293.335 1.3923.237.9337.444 1.8746.681 2.8086.251.99.551 1.9696.884 2.935.021.0625.045.1263.07.191l.038.0978.009-.0148c.068-.107.209-.0322.192.0809-.015.103-.036.2056-.054.3086l.035.0924c.218.5866.367 1.2043-.033 1.7219-.149.1936-.314.3082-.519.3423-.329 1.0842-.741 2.1482-1.183 3.1699l-.13.2984c-.649 1.491-1.342 2.9623-2.377 4.2316-1.13 1.3858-2.683 2.332-3.667 3.8505-.458.7064-.777 1.4491-1.035 2.2467l-.097.3028c-.184.5642-.396 1.1111-.925 1.4421-.169.1054-.422.0718-.558-.0721-1.085-1.1481.051-3.2919.705-4.4035.91-1.5457 2.227-2.5345 3.545-3.7007 1.421-1.257 2.327-2.9386 3.204-4.5952.537-1.0148 1.056-2.0516 1.602-3.0709-.571-.504-.753-1.5053-.947-2.2012l-.017-.0624c-.319-1.1145-.573-2.2579-.733-3.4064-.155-1.1042-.219-2.1926-.178-3.303l.011-.2829m2.664 3.2274c-.126-.1727.083-.3683.255-.3323 1.051.2173 2.079.8536 3.022 1.368l.101.0547c.753.406 1.511.9035 1.906 1.6924.43.8574.395 1.8449.336 2.7767l-.005.0872c-.072 1.1174-.084 2.2784-.32 3.3757-.121.5615-.63.7198-1.065.587-.517 1.6339-1.971 2.8376-3.032 4.1269-1.354 1.6436-1.099 3.8628-.958 5.8423.057.8015-.939 1.0293-1.453.6017l-1.183-.9828c-.197-.1641-.394-.3284-.59-.4934-.168-.1415-.335-.284-.5-.4283l-.247-.2179c-.109-.0979-.592-.6372-.733-.6596-.342-.0544-1.154.8467-1.432 1.1293l-.036.0353c-.523.5131-.996 1.0652-1.436 1.6507-.081.1075-.239.0183-.182-.106.395-.8453.854-1.6534 1.399-2.4098l.11-.1506c.362-.4885.849-1.351 1.489-1.4953.781-.176 1.561.6075 2.129 1.0423l.036.0272c.271.2029.538.4094.805.6173-.028-1.4739.158-2.9631.919-4.2332.536-.8958 1.34-1.5592 2.028-2.3289.766-.8572 1.166-1.9107 1.859-2.8033.089-.1148.212-.1767.346-.1963.026-.7177.132-1.4425.214-2.1523l.023-.2125c.083-.7713.278-1.7135-.1-2.4358-.356-.6823-1.175-1.1639-1.781-1.6269l-.495-.3838m-35.541-9.5215c-.316.183-.612.4107-.88.6953-.845.8961-1.449 2.0113-2.036 3.084-.317.5778-.622 1.1619-.941 1.7383-.139.2508-.281.4988-.426.7465-.066.1141-.265.3409-.363.4807.109.153.222.3036.337.4525.044.0569 3.074 3.3578 4.131 4.6497 1.617 1.9789 3.063 4.0691 4.299 6.3063 1.21 2.1909 2.131 4.5105 3.252 6.7438.562 1.1181 1.188 2.2283 1.987 3.1959.031.0378.064.0735.095.1107.305-.8237 1.086-1.7056 1.47-2.212l.036-.0478c.87-1.1731 1.789-2.3109 2.728-3.4293a92.2978 92.2978 0 012.638-3.0033l.339-.3677c.627-.6779 1.424-1.6923 2.343-2.1766a4.348 4.348 0 00-.343-.5204c-.861-1.1248-2.078-1.941-3.278-2.6776l-.779-.4736c-2.935-1.7886-5.824-3.66-8.372-5.9839-1.348-1.2296-2.677-2.5177-3.81-3.9519l-.401-.5071m2.871-3.7379c-1.374.1153-2.858.0879-4.128.5357 1.129 1.0674 2.202 2.22 3.305 3.3053.098-.734.298-1.4592.468-2.175" fill="#2B283A"/><path d="M199.271 124.504l-4.827.436c-.581.052-1.009.565-.957 1.144l.024.269c.052.58.566 1.007 1.146.955l4.828-.436c.58-.053 1.009-.565.956-1.144l-.024-.27c-.052-.579-.566-1.006-1.146-.954zM196.915 127.541l-2.357.212c-.504.046-.875.49-.83.993l.021.233c.046.503.491.873.994.828l2.357-.213c.503-.045.875-.49.83-.992l-.022-.234c-.045-.502-.49-.873-.993-.827zM196.999 130.04l-4.827.436c-.581.052-1.009.564-.957 1.144l.024.269c.053.58.566 1.007 1.147.955l4.827-.436c.58-.053 1.009-.565.956-1.145l-.024-.269c-.052-.579-.565-1.007-1.146-.954zM189.332 130.732l-.305.028c-.58.052-1.009.564-.956 1.144l.024.269c.052.58.566 1.007 1.146.954l.304-.027c.581-.052 1.009-.565.957-1.144l-.024-.269c-.053-.58-.566-1.007-1.146-.955z" fill="#2B283A"/><path fill-rule="evenodd" clip-rule="evenodd" d="M135.203 8.6152c6.565 0 14.443 3.1851 15.113 3.2488l.018.001c.353 0 1.729 1.0497 4.131 3.1492l-2.601 5.0767.21.2011c1.008.9664 1.868 1.8473 2.546 2.5417 5.543 5.6696 6.539 27.9301 5.233 35.6931-1.307 7.7629-3.726 15.3592-14.988 15.3592-11.263 0-23.793-6.7766-25.723-8.8869-1.287-1.4068-2.732-2.0808-4.336-2.022-.066-.0832-.132-.1662-.196-.249l-.236-.0334c-2.22-.3218-3.811-.7548-4.772-1.299-1.878-1.063-3.942-6.6511-3.942-7.8821 0-1.2187-3.081-10.0842-3.143-11.0224l-.001-.026c0-.7843-4.0255-4.3896-4.0255-5.5346 0-1.1449-.8114-1.0755 0-5.1102l.2358-1.1853c.8635-4.2957 2.5537-11.4089 8.9977-14.4998 7.082-3.3966 20.846-7.5201 27.479-7.5201z" fill="#fff"/><path fill-rule="evenodd" clip-rule="evenodd" d="M106.631 15.9757c3.532-3.7512 23.582-9.5534 33.727-8.3235l.304.0394c.809.1027 1.607.2583 2.395.4696 2.545.5948 5.173 1.4954 7.276 2.9997 1.756 1.2307 7.294 3.2404 5.662 6.4599.605 1.1474.831 2.565.422 3.6951-.052.3904-.172.7499-.326 1.1227 1.293 1.9093 2.317 4.0686 3.146 6.1224 1.448 5.1687 2.349 10.5477 2.481 15.8212.439 10.0189-.659 21.9866-9.379 28.4653-5.268 4.1054-13.52 4.2433-19.44-.8469-.336-.3978-1.915-1.4714-1.388-1.6597.157.1658.318.3272.482.4857a.1003.1003 0 01-.006-.0543l-.154-.14c-.291-.2693-.668-.6599-.239-.5835.019.0221.04.0411.06.0631.091.0546.16.1019.213.1436l.028.0221-.009-.0089c-.247-.2638-.395-.5329-.025-.3611l.049.0238c.164.1732.331.339.501.5005a.0904.0904 0 01.011-.0587l-.159-.1534c-.155-.1518-.131-.1524-.056-.2751-.329-.4616.286-.1874.329-.0074.384-.091.722.631.969.7191 10.852 8.3486 26.601.9408 26.346-22.3228l-.004-.4552c-.075-7.4387-.7-15.0843-3.775-21.818a19.3618 19.3618 0 00-1.002-1.8902 18.36 18.36 0 00-.816-1.3383 12.1154 12.1154 0 01-2.419-.4476c-.273-.069-.542-.1453-.812-.2348-3.942.2151-7.796.4492-11.749.6711l-1.235.0769c-3.349.2155-6.812.5605-9.514 2.6331-2.652 1.8869-2.664 5.6078-4.933 7.6795-3.237 2.1981-3.261 4.1803-3.884 7.4197.046 2.4419 1.738 5.9899-1.367 7.0176.524.7474-.206.3883-.264.1262a.06.06 0 01-.016.0029c.467.8683-.219.3215-.28.0426-.036-.0103-.073-.0367-.11-.0734.471.7608-.29.2281-.245.0895-.908-1.3978-2.779-1.6148-4.097-1.2444-.016.0499-.075.0543-.112.0279-5.606 1.2156-4.159 12.8289 1.586 11.7062.246-.0501.24.068.289.0793-.133-.3487.241-.2068.237-.1336l.023-.0011c.018-.0016.011-.0035.024.0011-.128-.713.594.3201.537.3625a.185.185 0 01.069-.0235l-.025-.0676c-.12-.3195-.11-.1867-.109-.3697-.09-.2261-.096-.1272-.075-.2745.316-.2454.41.4989.515.5534-.181-.2525-.037-.4586.134-.3216 1.294 2.7234 2.965 5.2823 5.125 7.2981.236.1863.475.3698.723.5429.919.8009 2.328 1.3158 3.188 2.0252a.0838.0838 0 01-.014.0411l.02.0178.019.0189.3.1438c.088.0748.167.1585.237.2509.075.0866.141.182.197.2833.028.1232-.034.1746-.151.1218-.052-.0176-.103-.0382-.154-.0573.003.0044.004.0074.007.0103.017.0255.131.2898-.001.2468l-.015-.0061c-.072-.0264-.144-.0558-.214-.0837.083.1042.159.2172.227.3126a.4904.4904 0 01.133.2627c-.003.0558-.033.0792-.089.0719a6.9914 6.9914 0 01-.252-.088l.023.0454c.06.1165.144.3118-.006.2466a4.9242 4.9242 0 01-.374-.135c-.01.0205-.03.0279-.071.0088a7.5754 7.5754 0 01-1.133-.5107c-.318-.2319-.639-.4593-.959-.6897a7.4244 7.4244 0 01-.868-.6076c-1.854-1.1986-3.478-2.7213-4.766-4.4172-2.154 1.8668-6.461.0834-9.125-1.378-2.357-1.306-3.283-3.721-3.523-6.3246-.498-3.5053-3.36-4.7051-3.161-12.3963-.005.0014-.009.0014-.015.0014a1.4847 1.4847 0 01-.3-.1247 1.4958 1.4958 0 01-.278-.1702l-.107-.1482c-.055-.0309-.105-.0631-.143-.0954l-.02.0255c-.063.0756-.021-.0382-.017-.0607l-.186-.2531c-.441-.6025-.9248-1.2785-1.3189-1.8191l-.0124.022c-.0089.0166-.0136.0286-.0094.0338-.9379-1.3483-1.8198-2.977-2.0649-4.5537-.2893-1.2145-.1763-2.466.0761-3.591 1.0822-3.9395 4.6275-12.8543 9.2815-16.6752zm25.451 54.4816l-.058-.0524.051.0648a.4408.4408 0 00.1.0942.0695.0695 0 01-.001-.0322 2.1496 2.1496 0 01-.092-.0744zm8.231-60.8256c-6.879-.5919-13.646.9246-20.21 2.7603l-.453.1303c-3.732 1.0658-7.679 2.0248-10.834 4.306-4.407 3.3778-6.682 8.7512-8.668 13.7124-1.7345 3.6861-.848 7.8425 1.765 10.4163.272-2.5577.736-5.0406 1.46-7.5035.151-.3848.037-.5108.363-.561.492 6.6372-1.932 11.541 2.865 19.4072 2.081 3.7116-.328 6.4273 5.55 8.3804l.159.0609c1.224.4624 2.562.8273 3.761.5689l-.107-.175c-.11-.1801-.143-.2675.016-.3445-.004-.0089-.01-.0177-.016-.0279a18.3777 18.3777 0 01-.372-.7396c-.049.0161-.097.0278-.147.041.032.0602.037.1204-.054.1409-.323.111-.655.1554-.995.1346l-.073-.0054c-.384-.0235-.625-.0935-.842-.1585-.071-.0118-.143-.0235-.214-.0382-.696-.1544-1.432-.5471-1.909-.9363-5.435-3.0888-4.873-13.6033 1.826-14.5972.137-6.6202 3.284-17.7891 8.506-24.0975 4.721-5.8026 17.607-8.3177 26.573-7.4308.131.0432.261.087.392.1311 1.383.123 2.702.7397 4.086 1.0261-.994-.7453-2.121-1.2418-3.283-1.6637-2.314-1.4163-4.966-2.1826-7.529-2.723a7.4076 7.4076 0 00-1.616-.2143zM112.877 49.922c.36-.1958.319-.0068.402-.0617 2.591-.2114 5.384 2.0584 6.832 3.9506-.114.1188-.423-.2334-.478-.2891a.0625.0625 0 01-.025.0161l.041.057c.587.8429-.577-.149-.686-.3534-.019.0103-.038.0161-.06.0117.092.0906.374.3267.422.4946l.075.0622c.704.6035.646 1.0575-.154.2005.019.0396.027.0763.013.1056l.028.0184c.393.2749.717 1.0414-.105.2546.085.5747-.815-.5361-.844-.5283-1.557-1.2232-3.849-2.4128-5.803-2.5726l-.067-.0077c-.358-.0461-.528-.1525-.402-.387-.441-.1051-.338-.3226-.129-.3155-.311-.2049-.031-.4008.15-.3244-.125-.3441.374-.1149.419-.1629.259-.399.328-.0661.371-.1687zm-5.43-21.3302c1.244-.4561 4.919.9093 4.625 2.7175-.175.4152-.752.6531-1.157.4187l-.529-.3557c-.921-.6172-1.752-1.1584-2.741-1.6967-.538-.2673-.77-.8346-.198-1.0838zm7.079-2.6871l-.48-.313c-2.594-1.6984-6.26-4.2719.242-1.6093.741.318 1.726.5061 2.13 1.2123.635 1.3015-1.037 1.389-1.892.71zm.292-7.6207c-.208-.7902 2.381.1371 3.135.3816l.115.0434c.733.2734 1.573.527 2.012 1.1602.514.875-.526 1.0562-1.17.661-1.321-.8638-2.77-1.5155-4.092-2.2462zm6.584-3.6812c-1.457-1.5927 2.444-.0669 3.028.3566l.017.0125c.435.3072.347.9687-.063 1.163-1.165.0222-2.023-.9499-2.982-1.5321zm6.633-1.745c-2.317-1.6664.735-.8738 1.795-.2207.723.6376-.021 1.714-1.795.2207z" fill="#2B283A"/><path fill-rule="evenodd" clip-rule="evenodd" d="M139.047 52.5145c2.51-.304 4.944.4628 7.399.8493 1.295.204 2.593.3563 3.904.4129.264.0115.528.0182.792.0236.025-.2318.155-.4446.436-.5721.578-.2612 1.04-.379 1.674-.3538.581.0228 1.163.0824 1.735.1868 1.038.1898 2.081.6206 2.84 1.3691 1.757 1.7319 1.49 4.5137.132 6.4001-2.805 3.8979-7.925 4.0788-12.31 4.0279l-.404-.0053c-3.993-.0569-9.705.537-11.519-3.9945-.667-1.6664-.574-3.5979.242-5.1961.975-1.9063 3.025-2.8992 5.079-3.1479zm12.471 6.4901l-.036.0015c-1.841.0707-3.681.1205-5.523.153.055.4718.112.9438.176 1.4146.05.3705.104.7406.161 1.1103.023.1565.111.3995.086.5545l-.009.0613a.5533.5533 0 01.244.2111c.023.0345.039.0693.055.1039 1.43.0113 2.969-.0164 4.426-.2757l.003-.0316c.027-.1858.104-.3108.207-.3966.102-.5924.093-1.2236.133-1.8113.024-.3652.051-.73.077-1.095zm-6.966.1795c-1.326.0225-2.654.0399-3.98.0237l-.602-.0093c.127.6806.265 1.3589.38 2.0441.12.7141-.51 1.168-1.055 1.1496.061.0101.122.0204.183.029 1.704.2404 3.473.1766 5.202.1747-.093-.5416-.055-1.1527-.069-1.6048l-.003-.07a67.2133 67.2133 0 01-.056-1.737zm-9.012-.1249c.046.3539.136.7002.27 1.0227.566 1.3624 1.865 1.9982 3.238 2.2659-.238-.0821-.427-.2794-.475-.6173-.119-.8401-.162-1.6943-.165-2.5474-.958-.0089-1.921-.0293-2.868-.1239zm20.971-.2909c-.682.1604-1.474.0869-2.143.1172-.626.0284-1.253.0531-1.88.0785.03.4267.059.8533.09 1.2797.04.5512.044 1.1337.15 1.6825 1.261-.4293 2.391-1.1178 3.238-2.2187.212-.2743.401-.5962.545-.9392zm-17.752-4.0184c-1.135.268-2.209.8342-2.786 1.87-.343.6147-.493 1.3432-.464 2.0611.959-.1114 1.934-.1536 2.905-.1886.003-.1744.007-.3486.013-.5224l.015-.4456c.026-.8499.039-1.9171.317-2.7745zm5.873.1036l-.5-.056c-1.387-.1577-2.774-.3232-4.161-.2283a8.0256 8.0256 0 00-.609.0655c.245.8828.224 1.9197.327 2.7936.039.338.089.6731.145 1.0069l.24-.0112c1.489-.0805 2.979-.13 4.469-.189 0-.279.002-.5583.006-.8377l.006-.2793c.017-.7136-.029-1.5173.077-2.2645zm6.967-.1133c-1.453.234-2.955.2838-4.383.2855-.57.0008-1.139-.0342-1.709-.0845.037.3025.056.6085.084.9068.057.6029.121 1.2048.191 1.8061l.062.5262c1.831-.0828 3.663-.1724 5.494-.2651l.258-.0138.072-1.0113c.05-.6743.104-1.3484.181-2.0197l-.058-.0207c-.067-.0276-.131-.0658-.192-.1095zm.631.251c.08.9534.124 1.9108.183 2.8659l1.207-.0644c.202-.0109.403-.0221.604-.0336.782-.045 1.787-.2813 2.56-.0609.059-.7013-.142-1.3845-.776-1.8556-1.114-.8275-2.532-.5329-3.778-.8514zm-4.124-8.5232c1.798-1.0269 6.307-2.0764 6.593 1.1505.131 1.4849-.975 2.7153-2.268 3.2643l-.048.0203c-1.212.497-3.36 1.0584-4.409-.0195-.873-.8971.285-2.5056 1.369-1.7707.558.3776 1.731.0994 2.353-.0803l.039-.0113c.671-.1968 1.566-.8267 1.289-1.6512-.246-.7294-1.291-.8627-1.946-.8863-.977-.035-1.927.1914-2.896.265-.153.0117-.2-.2098-.076-.2808zm7.446-5.1888c2.439-.114 3.957 2.5432 3.396 4.7204-.097.3757-.519.7445-.925.7022l-.103-.0094c-.052-.005-.104-.0115-.152-.0248-.386-.1066-.732-.5073-.704-.9225l.007-.121c.057-1.0285-.054-2.2135-1.28-2.4626-1.039-.2112-1.619.7866-1.631 1.705-.003.1631-.186.2769-.331.1892-.751-.456-.881-1.3632-.594-2.1445.363-.9899 1.274-1.5834 2.317-1.632zm-18.104.5699c1.775-.5909 3.691.3531 4.55 1.9188.302.0871.603.319.561.6741-.06.5108-.151.8328-.506 1.2201-.556.606-1.596.2962-1.827-.4498l-.009-.0336c-.263-.9642-1.326-1.6004-2.296-1.2629-1.132.3942-1.099 1.5871-1.893 2.282-.093.0817-.205.0947-.317.0408-.844-.4067-.692-1.6305-.391-2.331.394-.9192 1.161-1.7367 2.128-2.0585zm-2.418-5.378c1.439-1.4644 5.19-2.8814 6.174-.1773.188.5151-.211 1.2095-.749 1.3164-.88.1747-1.661-.2065-2.535-.1381-.708.0556-1.447.2916-2.013.7291-1.567 1.2115-1.912 3.2608-3.004 4.8028-.053.0751-.156.0436-.166-.045-.249-2.245.718-4.8842 2.293-6.4879zm18.762-1.4416c.954-.3363 2.035-.3075 2.995-.0092.967.3007 1.854.8717 2.538 1.6178.31.3387.597.7124.827 1.1103.123.2108.251.6464.39.9057.752.4332 1.074 1.4202.4 2.1224l-.03.0308-.09.0891c-.362.3574-.908.5122-1.402.3695-1.105-.3191-1.239-1.1877-1.622-2.1097-.253-.609-.686-1.1479-1.211-1.5437-1.241-.9351-3.276-1.233-4.77-.7924-.08.0236-.173-.0775-.116-.1509.283-.3659.446-.6661.825-.9613.385-.2995.805-.5159 1.266-.6784z" fill="#2B283A"/></svg>